<mxfile host="65bd71144e">
    <diagram id="rrNpXFmsZOu4wL_LO-MI" name="Page-1">
        <mxGraphModel dx="1358" dy="982" grid="1" gridSize="10" guides="1" tooltips="1" connect="1" arrows="1" fold="1" page="1" pageScale="1" pageWidth="850" pageHeight="1100" math="0" shadow="0">
            <root>
                <mxCell id="0"/>
                <mxCell id="1" parent="0"/>
                <mxCell id="49" value="&lt;b&gt;Data Factory&lt;/b&gt;" style="rounded=0;whiteSpace=wrap;html=1;verticalAlign=top;align=right;labelBackgroundColor=none;fillColor=#4D4D4D;spacingRight=5;" parent="1" vertex="1">
                    <mxGeometry x="10" y="271" width="202" height="220" as="geometry"/>
                </mxCell>
                <mxCell id="3" value="Virtual Network&lt;br&gt;vnet - spoke" style="rounded=0;whiteSpace=wrap;html=1;horizontal=1;verticalAlign=top;fillColor=#000000;" parent="1" vertex="1">
                    <mxGeometry x="240" y="210" width="260" height="450" as="geometry"/>
                </mxCell>
                <mxCell id="2" value="" style="aspect=fixed;html=1;points=[];align=center;image;fontSize=12;image=img/lib/azure2/networking/Virtual_Networks.svg;" parent="1" vertex="1">
                    <mxGeometry x="250" y="217" width="50.25" height="30" as="geometry"/>
                </mxCell>
                <mxCell id="6" value="&lt;b&gt;Subnet&lt;/b&gt;&lt;br&gt;Data Integration" style="rounded=0;whiteSpace=wrap;html=1;verticalAlign=top;align=right;labelBackgroundColor=none;fillColor=#4D4D4D;spacingRight=5;" parent="1" vertex="1">
                    <mxGeometry x="255" y="270" width="230" height="240" as="geometry"/>
                </mxCell>
                <mxCell id="9" value="&lt;b&gt;Route Table&lt;/b&gt;&lt;br&gt;&lt;div style=&quot;&quot;&gt;0.0.0.0/0 to 192.168.0.4&lt;/div&gt;" style="rounded=0;whiteSpace=wrap;html=1;verticalAlign=top;labelBackgroundColor=default;align=right;spacingRight=5;spacingLeft=5;fillColor=#1A1A1A;" parent="1" vertex="1">
                    <mxGeometry x="265" y="321" width="210" height="50" as="geometry"/>
                </mxCell>
                <mxCell id="4" value="" style="shape=image;verticalLabelPosition=bottom;labelBackgroundColor=default;verticalAlign=top;aspect=fixed;imageAspect=0;image=data:image/svg+xml,PHN2ZyB4bWxuczp4bGluaz0iaHR0cDovL3d3dy53My5vcmcvMTk5OS94bGluayIgeG1sbnM9Imh0dHA6Ly93d3cudzMub3JnLzIwMDAvc3ZnIiBwcmVzZXJ2ZUFzcGVjdFJhdGlvPSJ4TWlkWU1pZCBtZWV0IiBoZWlnaHQ9IjEwLjE3NTcyODc5NzkxMjU5OCIgd2lkdGg9IjE2Ljk5NjQ1MjMzMTU0Mjk3IiBkYXRhLXR5cGU9IjEiIGlkPSJGeFN5bWJvbDAtMDY5IiByb2xlPSJwcmVzZW50YXRpb24iIGNsYXNzPSIiIHZpZXdCb3g9IjAuNTAyNzczMDQ2NDkzNTMwMyAzLjkxMjYzNjUxODQ3ODM5MzYgMTYuOTk2NDUyMzMxNTQyOTcgMTAuMTc1NzI4Nzk3OTEyNTk4Ij48Zz48cGF0aCBkPSJNOS4wMzEgNy43QTEuMzA1IDEuMzA1IDAgMTAxMC4zMzggOWExLjMwNSAxLjMwNSAwIDAwLTEuMzA3LTEuM3oiIGZpbGw9InVybCgjNDBmZDM0NzUtMjFhYS00YThhLTk1NmMtMTNhNjE3ZTM1MGM2KSIvPjxwYXRoIGQ9Ik02LjM0IDEzLjM3NWwtLjYyNi42MjlhLjI4NC4yODQgMCAwMS0uNDAyIDBMLjY3MyA5LjM4YS41NjguNTY4IDAgMDEwLS44MDRsLjYyNi0uNjI5IDUuMDQgNS4wMjdhLjI4NC4yODQgMCAwMS4wMDIuNDAyeiIgZmlsbD0iIzUwZTZmZiIvPjxwYXRoIGQ9Ik01LjYyIDMuOTk2bC42MjcuNjI2YS4yODQuMjg0IDAgMDEwIC40MDJMMS4yOTUgOS45OWwtLjYyNi0uNjI0YS41NjguNTY4IDAgMDEwLS44MDNMNS4yMiAzLjk5OWEuMjg0LjI4NCAwIDAxLjQwMSAweiIgZmlsbD0iIzE0OTBkZiIvPjxwYXRoIGQ9Ik0xNi43MDIgNy45NDdsLjYyNy42MjlhLjU2OC41NjggMCAwMS0uMDAxLjgwM2wtNC42MzkgNC42MjZhLjI4NC4yODQgMCAwMS0uNDAyIDBsLS42MjctLjYzYS4yODQuMjg0IDAgMDEuMDAxLS40MDFsNS4wNDEtNS4wMjd6IiBmaWxsPSIjNTBlNmZmIi8+PHBhdGggZD0iTTE3LjMzMyA5LjM2NGwtLjYyOS42MjctNC45NTMtNC45NjdhLjI4NC4yODQgMCAwMTAtLjQwMmwuNjI4LS42MjZhLjI4NC4yODQgMCAwMS40MDIgMGw0LjU1MiA0LjU2NmEuNTY4LjU2OCAwIDAxMCAuODAzeiIgZmlsbD0iIzE0OTBkZiIvPjwvZz48ZGVmcz48bGluZWFyR3JhZGllbnQgZ3JhZGllbnRVbml0cz0idXNlclNwYWNlT25Vc2UiIHkyPSI3LjY5NSIgeTE9IjEwLjMwNSIgeDI9IjkuMDMzIiB4MT0iOS4wMzMiIGlkPSI0MGZkMzQ3NS0yMWFhLTRhOGEtOTU2Yy0xM2E2MTdlMzUwYzYiPjxzdG9wIHN0b3AtY29sb3I9IiM1ZTk2MjQiIG9mZnNldD0iMCIvPjxzdG9wIHN0b3AtY29sb3I9IiM2ZmIwMmEiIG9mZnNldD0iLjI0MSIvPjxzdG9wIHN0b3AtY29sb3I9IiM3Y2M1MmYiIG9mZnNldD0iLjUwMSIvPjxzdG9wIHN0b3AtY29sb3I9IiM4M2QyMzIiIG9mZnNldD0iLjc1NiIvPjxzdG9wIHN0b3AtY29sb3I9IiM4NmQ2MzMiIG9mZnNldD0iMSIvPjwvbGluZWFyR3JhZGllbnQ+PC9kZWZzPjwvc3ZnPg==;" parent="1" vertex="1">
                    <mxGeometry x="261.25" y="280" width="34" height="20" as="geometry"/>
                </mxCell>
                <mxCell id="5" value="" style="aspect=fixed;html=1;points=[];align=center;image;fontSize=12;image=img/lib/azure2/networking/Route_Tables.svg;" parent="1" vertex="1">
                    <mxGeometry x="275" y="331" width="30.25" height="29.31" as="geometry"/>
                </mxCell>
                <mxCell id="11" value="&lt;b&gt;Virtual Machine&lt;br&gt;&lt;/b&gt;SHIR" style="rounded=0;whiteSpace=wrap;html=1;verticalAlign=top;labelBackgroundColor=default;align=right;spacingRight=5;spacingLeft=5;fillColor=#1A1A1A;" parent="1" vertex="1">
                    <mxGeometry x="265" y="440" width="210" height="50" as="geometry"/>
                </mxCell>
                <mxCell id="8" value="" style="aspect=fixed;html=1;points=[];align=center;image;fontSize=12;image=img/lib/azure2/compute/Virtual_Machine.svg;" parent="1" vertex="1">
                    <mxGeometry x="275" y="450" width="33.91" height="31.45" as="geometry"/>
                </mxCell>
                <mxCell id="13" value="&lt;b&gt;Subnet&lt;/b&gt;&lt;br&gt;services" style="rounded=0;whiteSpace=wrap;html=1;verticalAlign=top;align=right;labelBackgroundColor=none;fillColor=#4D4D4D;spacingRight=5;" parent="1" vertex="1">
                    <mxGeometry x="255" y="520" width="230" height="120" as="geometry"/>
                </mxCell>
                <mxCell id="14" value="&lt;b&gt;Private Endpoint&lt;/b&gt;&lt;br&gt;&lt;div style=&quot;&quot;&gt;SQL01&amp;nbsp;&lt;/div&gt;" style="rounded=0;whiteSpace=wrap;html=1;verticalAlign=top;labelBackgroundColor=default;align=right;spacingRight=5;fillColor=#1A1A1A;" parent="1" vertex="1">
                    <mxGeometry x="265" y="571" width="210" height="50" as="geometry"/>
                </mxCell>
                <mxCell id="15" value="" style="shape=image;verticalLabelPosition=bottom;labelBackgroundColor=default;verticalAlign=top;aspect=fixed;imageAspect=0;image=data:image/svg+xml,PHN2ZyB4bWxuczp4bGluaz0iaHR0cDovL3d3dy53My5vcmcvMTk5OS94bGluayIgeG1sbnM9Imh0dHA6Ly93d3cudzMub3JnLzIwMDAvc3ZnIiBwcmVzZXJ2ZUFzcGVjdFJhdGlvPSJ4TWlkWU1pZCBtZWV0IiBoZWlnaHQ9IjEwLjE3NTcyODc5NzkxMjU5OCIgd2lkdGg9IjE2Ljk5NjQ1MjMzMTU0Mjk3IiBkYXRhLXR5cGU9IjEiIGlkPSJGeFN5bWJvbDAtMDY5IiByb2xlPSJwcmVzZW50YXRpb24iIGNsYXNzPSIiIHZpZXdCb3g9IjAuNTAyNzczMDQ2NDkzNTMwMyAzLjkxMjYzNjUxODQ3ODM5MzYgMTYuOTk2NDUyMzMxNTQyOTcgMTAuMTc1NzI4Nzk3OTEyNTk4Ij48Zz48cGF0aCBkPSJNOS4wMzEgNy43QTEuMzA1IDEuMzA1IDAgMTAxMC4zMzggOWExLjMwNSAxLjMwNSAwIDAwLTEuMzA3LTEuM3oiIGZpbGw9InVybCgjNDBmZDM0NzUtMjFhYS00YThhLTk1NmMtMTNhNjE3ZTM1MGM2KSIvPjxwYXRoIGQ9Ik02LjM0IDEzLjM3NWwtLjYyNi42MjlhLjI4NC4yODQgMCAwMS0uNDAyIDBMLjY3MyA5LjM4YS41NjguNTY4IDAgMDEwLS44MDRsLjYyNi0uNjI5IDUuMDQgNS4wMjdhLjI4NC4yODQgMCAwMS4wMDIuNDAyeiIgZmlsbD0iIzUwZTZmZiIvPjxwYXRoIGQ9Ik01LjYyIDMuOTk2bC42MjcuNjI2YS4yODQuMjg0IDAgMDEwIC40MDJMMS4yOTUgOS45OWwtLjYyNi0uNjI0YS41NjguNTY4IDAgMDEwLS44MDNMNS4yMiAzLjk5OWEuMjg0LjI4NCAwIDAxLjQwMSAweiIgZmlsbD0iIzE0OTBkZiIvPjxwYXRoIGQ9Ik0xNi43MDIgNy45NDdsLjYyNy42MjlhLjU2OC41NjggMCAwMS0uMDAxLjgwM2wtNC42MzkgNC42MjZhLjI4NC4yODQgMCAwMS0uNDAyIDBsLS42MjctLjYzYS4yODQuMjg0IDAgMDEuMDAxLS40MDFsNS4wNDEtNS4wMjd6IiBmaWxsPSIjNTBlNmZmIi8+PHBhdGggZD0iTTE3LjMzMyA5LjM2NGwtLjYyOS42MjctNC45NTMtNC45NjdhLjI4NC4yODQgMCAwMTAtLjQwMmwuNjI4LS42MjZhLjI4NC4yODQgMCAwMS40MDIgMGw0LjU1MiA0LjU2NmEuNTY4LjU2OCAwIDAxMCAuODAzeiIgZmlsbD0iIzE0OTBkZiIvPjwvZz48ZGVmcz48bGluZWFyR3JhZGllbnQgZ3JhZGllbnRVbml0cz0idXNlclNwYWNlT25Vc2UiIHkyPSI3LjY5NSIgeTE9IjEwLjMwNSIgeDI9IjkuMDMzIiB4MT0iOS4wMzMiIGlkPSI0MGZkMzQ3NS0yMWFhLTRhOGEtOTU2Yy0xM2E2MTdlMzUwYzYiPjxzdG9wIHN0b3AtY29sb3I9IiM1ZTk2MjQiIG9mZnNldD0iMCIvPjxzdG9wIHN0b3AtY29sb3I9IiM2ZmIwMmEiIG9mZnNldD0iLjI0MSIvPjxzdG9wIHN0b3AtY29sb3I9IiM3Y2M1MmYiIG9mZnNldD0iLjUwMSIvPjxzdG9wIHN0b3AtY29sb3I9IiM4M2QyMzIiIG9mZnNldD0iLjc1NiIvPjxzdG9wIHN0b3AtY29sb3I9IiM4NmQ2MzMiIG9mZnNldD0iMSIvPjwvbGluZWFyR3JhZGllbnQ+PC9kZWZzPjwvc3ZnPg==;" parent="1" vertex="1">
                    <mxGeometry x="261.25" y="530" width="34" height="20" as="geometry"/>
                </mxCell>
                <mxCell id="19" value="" style="aspect=fixed;html=1;points=[];align=center;image;fontSize=12;image=img/lib/azure2/networking/Private_Endpoint.svg;labelBackgroundColor=none;fillColor=#4D4D4D;" parent="1" vertex="1">
                    <mxGeometry x="275" y="583.19" width="27.95" height="25.62" as="geometry"/>
                </mxCell>
                <mxCell id="22" style="edgeStyle=orthogonalEdgeStyle;html=1;exitX=1;exitY=0.5;exitDx=0;exitDy=0;entryX=1;entryY=0.5;entryDx=0;entryDy=0;fillColor=#FF0000;strokeColor=#66CC00;" parent="1" source="14" target="11" edge="1">
                    <mxGeometry relative="1" as="geometry">
                        <mxPoint x="510" y="440" as="targetPoint"/>
                        <Array as="points">
                            <mxPoint x="530" y="596"/>
                            <mxPoint x="530" y="465"/>
                        </Array>
                    </mxGeometry>
                </mxCell>
                <mxCell id="23" value="&lt;font style=&quot;font-size: 10px;&quot;&gt;Azure SQL Database&lt;/font&gt;" style="aspect=fixed;html=1;points=[];align=center;image;fontSize=12;image=img/lib/azure2/databases/SQL_Database.svg;labelBackgroundColor=none;fillColor=#4D4D4D;" parent="1" vertex="1">
                    <mxGeometry x="137" y="576" width="30" height="40.01" as="geometry"/>
                </mxCell>
                <mxCell id="25" value="&lt;b&gt;Network Security Group&lt;/b&gt;&lt;br&gt;&lt;div style=&quot;&quot;&gt;Allow 443 to Internet&lt;/div&gt;" style="rounded=0;whiteSpace=wrap;html=1;verticalAlign=top;labelBackgroundColor=default;align=right;spacingRight=5;spacingLeft=5;fillColor=#1A1A1A;" parent="1" vertex="1">
                    <mxGeometry x="265" y="380" width="210" height="50" as="geometry"/>
                </mxCell>
                <mxCell id="27" value="" style="aspect=fixed;html=1;points=[];align=center;image;fontSize=12;image=img/lib/azure2/networking/Network_Security_Groups.svg;labelBackgroundColor=none;fillColor=#4D4D4D;" parent="1" vertex="1">
                    <mxGeometry x="278.98" y="390" width="22.36" height="27.14" as="geometry"/>
                </mxCell>
                <mxCell id="29" value="Virtual Network&lt;br&gt;vnet - hub" style="rounded=0;whiteSpace=wrap;html=1;horizontal=1;verticalAlign=top;fillColor=#000000;" parent="1" vertex="1">
                    <mxGeometry x="570" y="298" width="267" height="220" as="geometry"/>
                </mxCell>
                <mxCell id="28" value="" style="aspect=fixed;html=1;points=[];align=center;image;fontSize=12;image=img/lib/azure2/databases/Data_Factory.svg;labelBackgroundColor=none;fillColor=#4D4D4D;" parent="1" vertex="1">
                    <mxGeometry x="20" y="277" width="28" height="28" as="geometry"/>
                </mxCell>
                <mxCell id="30" value="" style="aspect=fixed;html=1;points=[];align=center;image;fontSize=12;image=img/lib/azure2/networking/Virtual_Networks.svg;" parent="1" vertex="1">
                    <mxGeometry x="580" y="305" width="50.25" height="30" as="geometry"/>
                </mxCell>
                <mxCell id="31" value="&lt;b&gt;Subnet&lt;/b&gt;&lt;br&gt;Firewall" style="rounded=0;whiteSpace=wrap;html=1;verticalAlign=top;align=right;labelBackgroundColor=none;fillColor=#4D4D4D;spacingRight=5;" parent="1" vertex="1">
                    <mxGeometry x="590" y="358" width="230" height="145" as="geometry"/>
                </mxCell>
                <mxCell id="33" value="" style="shape=image;verticalLabelPosition=bottom;labelBackgroundColor=default;verticalAlign=top;aspect=fixed;imageAspect=0;image=data:image/svg+xml,PHN2ZyB4bWxuczp4bGluaz0iaHR0cDovL3d3dy53My5vcmcvMTk5OS94bGluayIgeG1sbnM9Imh0dHA6Ly93d3cudzMub3JnLzIwMDAvc3ZnIiBwcmVzZXJ2ZUFzcGVjdFJhdGlvPSJ4TWlkWU1pZCBtZWV0IiBoZWlnaHQ9IjEwLjE3NTcyODc5NzkxMjU5OCIgd2lkdGg9IjE2Ljk5NjQ1MjMzMTU0Mjk3IiBkYXRhLXR5cGU9IjEiIGlkPSJGeFN5bWJvbDAtMDY5IiByb2xlPSJwcmVzZW50YXRpb24iIGNsYXNzPSIiIHZpZXdCb3g9IjAuNTAyNzczMDQ2NDkzNTMwMyAzLjkxMjYzNjUxODQ3ODM5MzYgMTYuOTk2NDUyMzMxNTQyOTcgMTAuMTc1NzI4Nzk3OTEyNTk4Ij48Zz48cGF0aCBkPSJNOS4wMzEgNy43QTEuMzA1IDEuMzA1IDAgMTAxMC4zMzggOWExLjMwNSAxLjMwNSAwIDAwLTEuMzA3LTEuM3oiIGZpbGw9InVybCgjNDBmZDM0NzUtMjFhYS00YThhLTk1NmMtMTNhNjE3ZTM1MGM2KSIvPjxwYXRoIGQ9Ik02LjM0IDEzLjM3NWwtLjYyNi42MjlhLjI4NC4yODQgMCAwMS0uNDAyIDBMLjY3MyA5LjM4YS41NjguNTY4IDAgMDEwLS44MDRsLjYyNi0uNjI5IDUuMDQgNS4wMjdhLjI4NC4yODQgMCAwMS4wMDIuNDAyeiIgZmlsbD0iIzUwZTZmZiIvPjxwYXRoIGQ9Ik01LjYyIDMuOTk2bC42MjcuNjI2YS4yODQuMjg0IDAgMDEwIC40MDJMMS4yOTUgOS45OWwtLjYyNi0uNjI0YS41NjguNTY4IDAgMDEwLS44MDNMNS4yMiAzLjk5OWEuMjg0LjI4NCAwIDAxLjQwMSAweiIgZmlsbD0iIzE0OTBkZiIvPjxwYXRoIGQ9Ik0xNi43MDIgNy45NDdsLjYyNy42MjlhLjU2OC41NjggMCAwMS0uMDAxLjgwM2wtNC42MzkgNC42MjZhLjI4NC4yODQgMCAwMS0uNDAyIDBsLS42MjctLjYzYS4yODQuMjg0IDAgMDEuMDAxLS40MDFsNS4wNDEtNS4wMjd6IiBmaWxsPSIjNTBlNmZmIi8+PHBhdGggZD0iTTE3LjMzMyA5LjM2NGwtLjYyOS42MjctNC45NTMtNC45NjdhLjI4NC4yODQgMCAwMTAtLjQwMmwuNjI4LS42MjZhLjI4NC4yODQgMCAwMS40MDIgMGw0LjU1MiA0LjU2NmEuNTY4LjU2OCAwIDAxMCAuODAzeiIgZmlsbD0iIzE0OTBkZiIvPjwvZz48ZGVmcz48bGluZWFyR3JhZGllbnQgZ3JhZGllbnRVbml0cz0idXNlclNwYWNlT25Vc2UiIHkyPSI3LjY5NSIgeTE9IjEwLjMwNSIgeDI9IjkuMDMzIiB4MT0iOS4wMzMiIGlkPSI0MGZkMzQ3NS0yMWFhLTRhOGEtOTU2Yy0xM2E2MTdlMzUwYzYiPjxzdG9wIHN0b3AtY29sb3I9IiM1ZTk2MjQiIG9mZnNldD0iMCIvPjxzdG9wIHN0b3AtY29sb3I9IiM2ZmIwMmEiIG9mZnNldD0iLjI0MSIvPjxzdG9wIHN0b3AtY29sb3I9IiM3Y2M1MmYiIG9mZnNldD0iLjUwMSIvPjxzdG9wIHN0b3AtY29sb3I9IiM4M2QyMzIiIG9mZnNldD0iLjc1NiIvPjxzdG9wIHN0b3AtY29sb3I9IiM4NmQ2MzMiIG9mZnNldD0iMSIvPjwvbGluZWFyR3JhZGllbnQ+PC9kZWZzPjwvc3ZnPg==;" parent="1" vertex="1">
                    <mxGeometry x="596.25" y="368" width="34" height="20" as="geometry"/>
                </mxCell>
                <mxCell id="35" value="&lt;b&gt;Network Virtual Appliance&lt;br&gt;&lt;/b&gt;Firewall&lt;br&gt;&lt;br&gt;&lt;font color=&quot;#009900&quot;&gt;Allow:&lt;/font&gt; https://onelake.dfs.fabric.com/abc/def" style="rounded=0;whiteSpace=wrap;html=1;verticalAlign=top;labelBackgroundColor=default;align=right;spacingRight=5;spacingLeft=5;fillColor=#1A1A1A;" parent="1" vertex="1">
                    <mxGeometry x="600" y="411" width="210" height="82" as="geometry"/>
                </mxCell>
                <mxCell id="36" value="" style="aspect=fixed;html=1;points=[];align=center;image;fontSize=12;image=img/lib/azure2/compute/Virtual_Machine.svg;" parent="1" vertex="1">
                    <mxGeometry x="610" y="421" width="33.91" height="31.45" as="geometry"/>
                </mxCell>
                <mxCell id="46" style="edgeStyle=orthogonalEdgeStyle;html=1;exitX=1;exitY=0.25;exitDx=0;exitDy=0;strokeColor=#66CC00;fillColor=#FF0000;" parent="1" source="11" target="35" edge="1">
                    <mxGeometry relative="1" as="geometry"/>
                </mxCell>
                <mxCell id="47" style="edgeStyle=orthogonalEdgeStyle;html=1;exitX=1.077;exitY=0.547;exitDx=0;exitDy=0;strokeColor=#66CC00;fillColor=#FF0000;exitPerimeter=0;" parent="1" source="23" edge="1">
                    <mxGeometry relative="1" as="geometry">
                        <mxPoint x="180.20999999999998" y="597.65" as="sourcePoint"/>
                        <mxPoint x="267" y="598" as="targetPoint"/>
                    </mxGeometry>
                </mxCell>
                <mxCell id="50" value="&lt;b&gt;Linked&lt;br&gt;Services&lt;/b&gt;&lt;br&gt;&lt;div style=&quot;&quot;&gt;&lt;br&gt;&lt;/div&gt;" style="rounded=0;whiteSpace=wrap;html=1;verticalAlign=top;labelBackgroundColor=default;align=right;spacingRight=5;spacingLeft=5;fillColor=#1A1A1A;" parent="1" vertex="1">
                    <mxGeometry x="20" y="315" width="182" height="50" as="geometry"/>
                </mxCell>
                <mxCell id="52" value="" style="aspect=fixed;html=1;points=[];align=center;image;fontSize=12;image=img/lib/azure2/security/Key_Vaults.svg;labelBackgroundColor=none;fillColor=#4D4D4D;" parent="1" vertex="1">
                    <mxGeometry x="32" y="328.75" width="23.25" height="23.25" as="geometry"/>
                </mxCell>
                <mxCell id="53" value="" style="aspect=fixed;html=1;points=[];align=center;image;fontSize=12;image=img/lib/azure2/databases/SQL_Database.svg;labelBackgroundColor=none;fillColor=#4D4D4D;" parent="1" vertex="1">
                    <mxGeometry x="67" y="327.99" width="18" height="24.01" as="geometry"/>
                </mxCell>
                <mxCell id="54" value="" style="shape=image;verticalLabelPosition=bottom;labelBackgroundColor=#a58cc5;verticalAlign=top;aspect=fixed;imageAspect=0;image=data:image/svg+xml,PHN2ZyB4bWxucz0iaHR0cDovL3d3dy53My5vcmcvMjAwMC9zdmciIGZpbGw9Im5vbmUiIHZpZXdCb3g9IjAgMCAzMiAzMyIgaGVpZ2h0PSIzMyIgd2lkdGg9IjMyIj4KPHBhdGggZmlsbD0iYmxhY2siIGQ9Ik0xMi42MjYgNC4zOTAwMkMxMy4zOTcgMy42NjE3NCAxNC42MDMgMy42NjE3NCAxNS4zNzQgNC4zOTAwMkwyNS4wNjEgMTMuNTQwM0MyNS42NjA0IDE0LjEwNjQgMjYgMTQuODk0MSAyNiAxNS43MTgyVjE4LjYwNjJDMjUuNzk5IDE4LjQyNjQgMjUuNTc0IDE4LjI3NCAyNS4zMzA3IDE4LjE1MzhDMjQuOTE3IDE3Ljk0OTIgMjQuNDYxNSAxNy44NDMyIDI0IDE3Ljg0MzhWMTUuNzE4MkMyNCAxNS40NDM1IDIzLjg4NjggMTUuMTgxIDIzLjY4NyAxNC45OTIyTDE0IDUuODQxOThMNC4zMTI5OSAxNC45OTIyQzQuMTEzMiAxNS4xODEgNCAxNS40NDM1IDQgMTUuNzE4MlYyNi44NDY2QzQgMjcuMzk4MyA0LjQ0NzcyIDI3Ljg0NTYgNSAyNy44NDU2SDguNzYyM0M4LjI3MjY3IDI4LjM5MzkgOCAyOS4xMDQ4IDggMjkuODQzOEw1IDI5Ljg0MzhDMy4zNDMxNCAyOS44NDM4IDIgMjguNTAxOSAyIDI2Ljg0NjZWMTUuNzE4MkMyIDE0Ljg5NDEgMi4zMzk2MSAxNC4xMDY0IDIuOTM4OTYgMTMuNTQwM0wxMi42MjYgNC4zOTAwMloiLz4KPHBhdGggZmlsbD0iYmxhY2siIGQ9Ik0yOSAyMi44NDM3QzI4LjM5NzkgMjIuODc3MyAyNy43OTUyIDIyLjc4NzYgMjcuMjI4OSAyMi41OEMyNi42NjI3IDIyLjM3MjUgMjYuMTQ0OCAyMi4wNTE1IDI1LjcwNyAyMS42MzY3QzI1LjQ2NTggMjEuMzk2NCAyNS4yNTkxIDIxLjEyMzggMjUuMDkzIDIwLjgyNjdDMjUuMDUyNiAyMC43NTA2IDI1LjAxNjMgMjAuNjcyNSAyNC45ODQgMjAuNTkyN0MyNC45NDkzIDIwLjUwNTkgMjQuOTA5MiAyMC40MjE0IDI0Ljg2NCAyMC4zMzk3QzI0Ljg0MzcgMjAuMzA1IDI0LjgyMTQgMjAuMjcxNiAyNC43OTcgMjAuMjM5N0MyNC42NzE5IDIwLjA3NTMgMjQuNDk5IDE5Ljk1MzcgMjQuMzAyMSAxOS44OTE2QzI0LjEwNTEgMTkuODI5NSAyMy44OTM3IDE5LjgyOTggMjMuNjk3IDE5Ljg5MjdIMjMuNjg3QzIzLjQ1NjYgMTkuOTcwOSAyMy4yNjE4IDIwLjEyOTIgMjMuMTM4IDIwLjMzODdDMjMuMDg2MSAyMC40MzUzIDIzLjA0MTMgMjAuNTM1NSAyMy4wMDQgMjAuNjM4N0wyMi45OTM1IDIwLjY2NDhDMjIuOTY2MSAyMC43MzMyIDIyLjkzODYgMjAuODAxOSAyMi45MDQgMjAuODY2N0MyMi43NTQxIDIxLjE2NiAyMi41NzA5IDIxLjQ0NzQgMjIuMzU4IDIxLjcwNTdDMjIuMDc2NSAyMi4wNjExIDIxLjcxODIgMjIuMzQ4MiAyMS4zMTAxIDIyLjU0NTVDMjAuOTAxOSAyMi43NDI5IDIwLjQ1NDQgMjIuODQ1NCAyMC4wMDEgMjIuODQ1NEMxOS41NDc2IDIyLjg0NTQgMTkuMTAwMSAyMi43NDI5IDE4LjY5MTkgMjIuNTQ1NUMxOC4yODM4IDIyLjM0ODIgMTcuOTI1NSAyMi4wNjExIDE3LjY0NCAyMS43MDU3QzE3LjQzMTEgMjEuNDQ3NCAxNy4yNDc5IDIxLjE2NiAxNy4wOTggMjAuODY2N0MxNy4wNzExIDIwLjgxMzYgMTcuMDQ3OSAyMC43NTc5IDE3LjAyNDYgMjAuNzAxOUMxNy4wMTU4IDIwLjY4MDggMTcuMDA3IDIwLjY1OTcgMTYuOTk4IDIwLjYzODdDMTYuOTYwNyAyMC41MzU1IDE2LjkxNTkgMjAuNDM1MyAxNi44NjQgMjAuMzM4N0MxNi43NDAyIDIwLjEyOTIgMTYuNTQ1NCAxOS45NzA5IDE2LjMxNSAxOS44OTI3SDE2LjMwNUMxNi4xMDgzIDE5LjgyOTggMTUuODk2OSAxOS44Mjk1IDE1LjY5OTkgMTkuODkxNkMxNS41MDMgMTkuOTUzNyAxNS4zMzAxIDIwLjA3NTMgMTUuMjA1IDIwLjIzOTdDMTUuMTgwNiAyMC4yNzE2IDE1LjE1ODMgMjAuMzA1IDE1LjEzOCAyMC4zMzk3QzE1LjA5MjggMjAuNDIxNCAxNS4wNTI3IDIwLjUwNTkgMTUuMDE4IDIwLjU5MjdDMTQuOTg1NyAyMC42NzI1IDE0Ljk0OTQgMjAuNzUwNiAxNC45MDkgMjAuODI2N0MxNC43NDI5IDIxLjEyMzggMTQuNTM2MiAyMS4zOTY0IDE0LjI5NSAyMS42MzY3QzEzLjg1NyAyMi4wNTE3IDEzLjMzODcgMjIuMzcyOSAxMi43NzIxIDIyLjU4MDRDMTIuMjA1NSAyMi43ODggMTEuNjAyNSAyMi44Nzc2IDExIDIyLjg0MzdDMTAuNzM0OCAyMi44NDM3IDEwLjQ4MDQgMjIuOTQ5IDEwLjI5MjkgMjMuMTM2NkMxMC4xMDU0IDIzLjMyNDEgMTAgMjMuNTc4NSAxMCAyMy44NDM3QzEwIDI0LjEwODkgMTAuMTA1NCAyNC4zNjMyIDEwLjI5MjkgMjQuNTUwOEMxMC40ODA0IDI0LjczODMgMTAuNzM0OCAyNC44NDM3IDExIDI0Ljg0MzdDMTEuODY1IDI0Ljg3NzkgMTIuNzI3OSAyNC43MzY3IDEzLjUzNjkgMjQuNDI4NkMxNC4zNDU4IDI0LjEyMDQgMTUuMDg0IDIzLjY1MTcgMTUuNzA3IDIzLjA1MDdDMTUuNzk0IDIyLjk2MzcgMTUuODc2IDIyLjg3NjcgMTUuOTUyIDIyLjc4OTdDMTYuMDAxIDIyLjg1NDcgMTYuMDUyIDIyLjkxODcgMTYuMTA3IDIyLjk4MzdDMTYuNTc1NiAyMy41NjUxIDE3LjE2ODYgMjQuMDM0MiAxNy44NDIyIDI0LjM1NjVDMTguNTE1OSAyNC42Nzg4IDE5LjI1MzIgMjQuODQ2MSAyMCAyNC44NDYxQzIwLjc0NjggMjQuODQ2MSAyMS40ODQxIDI0LjY3ODggMjIuMTU3OCAyNC4zNTY1QzIyLjgzMTQgMjQuMDM0MiAyMy40MjQ0IDIzLjU2NTEgMjMuODkzIDIyLjk4MzdDMjMuOTQ3IDIyLjkxODcgMjMuOTk5IDIyLjg1NDcgMjQuMDQ4IDIyLjc4OTdDMjQuMTI0IDIyLjg3NjcgMjQuMjA2IDIyLjk2MzcgMjQuMjkzIDIzLjA1MDdDMjQuOTE2IDIzLjY1MTcgMjUuNjU0MiAyNC4xMjA0IDI2LjQ2MzEgMjQuNDI4NkMyNy4yNzIxIDI0LjczNjcgMjguMTM1IDI0Ljg3NzkgMjkgMjQuODQzN0MyOS4yNjUyIDI0Ljg0MzcgMjkuNTE5NiAyNC43MzgzIDI5LjcwNzEgMjQuNTUwOEMyOS44OTQ2IDI0LjM2MzIgMzAgMjQuMTA4OSAzMCAyMy44NDM3QzMwIDIzLjU3ODUgMjkuODk0NiAyMy4zMjQxIDI5LjcwNzEgMjMuMTM2NkMyOS41MTk2IDIyLjk0OSAyOS4yNjUyIDIyLjg0MzcgMjkgMjIuODQzN1oiLz4KPHBhdGggZmlsbD0iYmxhY2siIGQ9Ik0yOSAyOC44NDM3QzI4LjM5NzkgMjguODc3MyAyNy43OTUyIDI4Ljc4NzYgMjcuMjI4OSAyOC41OEMyNi42NjI3IDI4LjM3MjUgMjYuMTQ0OCAyOC4wNTE1IDI1LjcwNyAyNy42MzY3QzI1LjQ2NTggMjcuMzk2NCAyNS4yNTkxIDI3LjEyMzggMjUuMDkzIDI2LjgyNjdDMjUuMDUyNiAyNi43NTA2IDI1LjAxNjMgMjYuNjcyNSAyNC45ODQgMjYuNTkyN0MyNC45NDkzIDI2LjUwNTkgMjQuOTA5MiAyNi40MjE0IDI0Ljg2NCAyNi4zMzk3QzI0Ljg0MzcgMjYuMzA1IDI0LjgyMTQgMjYuMjcxNiAyNC43OTcgMjYuMjM5N0MyNC42NzE5IDI2LjA3NTMgMjQuNDk5IDI1Ljk1MzcgMjQuMzAyMSAyNS44OTE2QzI0LjEwNTEgMjUuODI5NSAyMy44OTM3IDI1LjgyOTggMjMuNjk3IDI1Ljg5MjdIMjMuNjg3QzIzLjQ1NjYgMjUuOTcwOSAyMy4yNjE4IDI2LjEyOTIgMjMuMTM4IDI2LjMzODdDMjMuMDg2MSAyNi40MzUzIDIzLjA0MTMgMjYuNTM1NSAyMy4wMDQgMjYuNjM4N0wyMi45OTM1IDI2LjY2NDhDMjIuOTY2MSAyNi43MzMyIDIyLjkzODYgMjYuODAxOSAyMi45MDQgMjYuODY2N0MyMi43NTQxIDI3LjE2NiAyMi41NzA5IDI3LjQ0NzQgMjIuMzU4IDI3LjcwNTdDMjIuMDc2NSAyOC4wNjExIDIxLjcxODIgMjguMzQ4MiAyMS4zMTAxIDI4LjU0NTVDMjAuOTAxOSAyOC43NDI5IDIwLjQ1NDQgMjguODQ1NCAyMC4wMDEgMjguODQ1NEMxOS41NDc2IDI4Ljg0NTQgMTkuMTAwMSAyOC43NDI5IDE4LjY5MTkgMjguNTQ1NUMxOC4yODM4IDI4LjM0ODIgMTcuOTI1NSAyOC4wNjExIDE3LjY0NCAyNy43MDU3QzE3LjQzMTEgMjcuNDQ3NCAxNy4yNDc5IDI3LjE2NiAxNy4wOTggMjYuODY2N0MxNy4wNzExIDI2LjgxMzYgMTcuMDQ3OSAyNi43NTc5IDE3LjAyNDYgMjYuNzAxOUMxNy4wMTU4IDI2LjY4MDggMTcuMDA3IDI2LjY1OTcgMTYuOTk4IDI2LjYzODdDMTYuOTYwNyAyNi41MzU1IDE2LjkxNTkgMjYuNDM1MyAxNi44NjQgMjYuMzM4N0MxNi43NDAyIDI2LjEyOTIgMTYuNTQ1NCAyNS45NzA5IDE2LjMxNSAyNS44OTI3SDE2LjMwNUMxNi4xMDgzIDI1LjgyOTggMTUuODk2OSAyNS44Mjk1IDE1LjY5OTkgMjUuODkxNkMxNS41MDMgMjUuOTUzNyAxNS4zMzAxIDI2LjA3NTMgMTUuMjA1IDI2LjIzOTdDMTUuMTgwNiAyNi4yNzE2IDE1LjE1ODMgMjYuMzA1IDE1LjEzOCAyNi4zMzk3QzE1LjA5MjggMjYuNDIxNCAxNS4wNTI3IDI2LjUwNTkgMTUuMDE4IDI2LjU5MjdDMTQuOTg1NyAyNi42NzI1IDE0Ljk0OTQgMjYuNzUwNiAxNC45MDkgMjYuODI2N0MxNC43NDI5IDI3LjEyMzggMTQuNTM2MiAyNy4zOTY0IDE0LjI5NSAyNy42MzY3QzEzLjg1NyAyOC4wNTE3IDEzLjMzODcgMjguMzcyOSAxMi43NzIxIDI4LjU4MDRDMTIuMjA1NSAyOC43ODggMTEuNjAyNSAyOC44Nzc2IDExIDI4Ljg0MzdDMTAuNzM0OCAyOC44NDM3IDEwLjQ4MDQgMjguOTQ5IDEwLjI5MjkgMjkuMTM2NkMxMC4xMDU0IDI5LjMyNDEgMTAgMjkuNTc4NSAxMCAyOS44NDM3QzEwIDMwLjEwODkgMTAuMTA1NCAzMC4zNjMyIDEwLjI5MjkgMzAuNTUwOEMxMC40ODA0IDMwLjczODMgMTAuNzM0OCAzMC44NDM3IDExIDMwLjg0MzdDMTEuODY1IDMwLjg3NzkgMTIuNzI3OSAzMC43MzY3IDEzLjUzNjkgMzAuNDI4NkMxNC4zNDU4IDMwLjEyMDQgMTUuMDg0IDI5LjY1MTcgMTUuNzA3IDI5LjA1MDdDMTUuNzk0IDI4Ljk2MzcgMTUuODc2IDI4Ljg3NjcgMTUuOTUyIDI4Ljc4OTdDMTYuMDAxIDI4Ljg1NDcgMTYuMDUyIDI4LjkxODcgMTYuMTA3IDI4Ljk4MzdDMTYuNTc1NiAyOS41NjUxIDE3LjE2ODYgMzAuMDM0MiAxNy44NDIyIDMwLjM1NjVDMTguNTE1OSAzMC42Nzg4IDE5LjI1MzIgMzAuODQ2MSAyMCAzMC44NDYxQzIwLjc0NjggMzAuODQ2MSAyMS40ODQxIDMwLjY3ODggMjIuMTU3OCAzMC4zNTY1QzIyLjgzMTQgMzAuMDM0MiAyMy40MjQ0IDI5LjU2NTEgMjMuODkzIDI4Ljk4MzdDMjMuOTQ3IDI4LjkxODcgMjMuOTk5IDI4Ljg1NDcgMjQuMDQ4IDI4Ljc4OTdDMjQuMTI0IDI4Ljg3NjcgMjQuMjA2IDI4Ljk2MzcgMjQuMjkzIDI5LjA1MDdDMjQuOTE2IDI5LjY1MTcgMjUuNjU0MiAzMC4xMjA0IDI2LjQ2MzEgMzAuNDI4NkMyNy4yNzIxIDMwLjczNjcgMjguMTM1IDMwLjg3NzkgMjkgMzAuODQzN0MyOS4yNjUyIDMwLjg0MzcgMjkuNTE5NiAzMC43MzgzIDI5LjcwNzEgMzAuNTUwOEMyOS44OTQ2IDMwLjM2MzIgMzAgMzAuMTA4OSAzMCAyOS44NDM3QzMwIDI5LjU3ODUgMjkuODk0NiAyOS4zMjQxIDI5LjcwNzEgMjkuMTM2NkMyOS41MTk2IDI4Ljk0OSAyOS4yNjUyIDI4Ljg0MzcgMjkgMjguODQzN1oiLz4KPC9zdmc+;strokeColor=#FFFFFF;fillColor=#33FFFF;imageBackground=#E6E6E6;" parent="1" vertex="1">
                    <mxGeometry x="100" y="328.99" width="22" height="22.69" as="geometry"/>
                </mxCell>
                <mxCell id="56" style="edgeStyle=orthogonalEdgeStyle;html=1;exitX=0;exitY=0.5;exitDx=0;exitDy=0;strokeColor=#66CC00;fillColor=#FF0000;" parent="1" source="11" target="49" edge="1">
                    <mxGeometry relative="1" as="geometry">
                        <mxPoint x="34.99999999999994" y="314.88546999999994" as="sourcePoint"/>
                        <mxPoint x="132.69" y="315" as="targetPoint"/>
                        <Array as="points">
                            <mxPoint x="230" y="465"/>
                            <mxPoint x="230" y="381"/>
                        </Array>
                    </mxGeometry>
                </mxCell>
                <mxCell id="57" value="Fabric" style="rounded=0;whiteSpace=wrap;html=1;horizontal=1;verticalAlign=top;fillColor=#000000;" parent="1" vertex="1">
                    <mxGeometry x="567" y="80" width="270" height="180" as="geometry"/>
                </mxCell>
                <mxCell id="58" value="" style="shape=image;verticalLabelPosition=bottom;labelBackgroundColor=default;verticalAlign=top;aspect=fixed;imageAspect=0;image=data:image/svg+xml,PHN2ZyB4bWxucz0iaHR0cDovL3d3dy53My5vcmcvMjAwMC9zdmciIGZpbGw9Im5vbmUiIHZpZXdCb3g9IjAgMCAyNTYgMjU2IiBoZWlnaHQ9IjI1NiIgd2lkdGg9IjI1NiI+CjxnIGNsaXAtcGF0aD0idXJsKCNjbGlwMF8xMjYzXzEyNDU5MCkiPgo8cGF0aCBmaWxsPSJ1cmwoI3BhaW50MF9saW5lYXJfMTI2M18xMjQ1OTApIiBkPSJNMTAuNDk2IDE3Ni42MzRMNi43NDY2OSAxOTAuMzU2QzUuMzQ5MzcgMTk0Ljc0NiAzLjM5MjA1IDIwMS4xOTQgMi4zMzYwNiAyMDYuOTMyQzAuODMyMDY5IDIxMC45IDAuMDEwNzQyMiAyMTUuMjA0IDAuMDEwNzQyMiAyMTkuN0MwLjAxMDc0MjIgMjM4LjIzOSAxNC4wMTYgMjUzLjUwMiAzMi4wMjEyIDI1NS40OTdDMzcuMDg3OCAyNTYuMjI4IDQyLjgyMTEgMjU2LjE5IDQ5LjI0NzcgMjU1LjI0Nkw3OC43NzI4IDI1MS4xNzJDODYuMTk2NyAyNTAuMTQ4IDkyLjI5MjcgMjQ0Ljc4OCA5NC4yNjYgMjM3LjU1NkwxMTQuNTg2IDE2Mi45MjJMMTAuNDk2IDE3Ni42MzRaIiBjbGlwLXJ1bGU9ImV2ZW5vZGQiIGZpbGwtcnVsZT0iZXZlbm9kZCIvPgo8cGF0aCBmaWxsPSJ1cmwoI3BhaW50MV9saW5lYXJfMTI2M18xMjQ1OTApIiBkPSJNMzkuMjk0MiAxODAuMTdDOC4xNzQ0NCAxODQuOTkxIDEuNzg1MTYgMjA4LjQ3NCAxLjc4NTE2IDIwOC40NzRMMzEuNTg3NiA5OC45NzA4TDE4Ny4zMTQgNzcuOTA0M0wxNjYuMDc3IDE1NS4wNEMxNjQuOTczIDE1OS4xNzMgMTYxLjUwMSAxNjIuMzQxIDE1Ny4xOTcgMTYyLjk5N0wxNTYuMzI4IDE2My4xNDFMMzguNDE5NSAxODAuMzJMMzkuMjk0MiAxODAuMTdaIi8+CjxwYXRoIGZpbGwtb3BhY2l0eT0iMC44IiBmaWxsPSJ1cmwoI3BhaW50Ml9saW5lYXJfMTI2M18xMjQ1OTApIiBkPSJNMzkuMjk0MiAxODAuMTdDOC4xNzQ0NCAxODQuOTkxIDEuNzg1MTYgMjA4LjQ3NCAxLjc4NTE2IDIwOC40NzRMMzEuNTg3NiA5OC45NzA4TDE4Ny4zMTQgNzcuOTA0M0wxNjYuMDc3IDE1NS4wNEMxNjQuOTczIDE1OS4xNzMgMTYxLjUwMSAxNjIuMzQxIDE1Ny4xOTcgMTYyLjk5N0wxNTYuMzI4IDE2My4xNDFMMzguNDE5NSAxODAuMzJMMzkuMjk0MiAxODAuMTdaIi8+CjxwYXRoIGZpbGw9InVybCgjcGFpbnQzX2xpbmVhcl8xMjYzXzEyNDU5MCkiIGQ9Ik01Ni45NTMyIDExMC4zMDNMMjI5LjM1MiA4NC44MzY3QzIzMy40NTMgODQuMjc2NyAyMzYuNzc2IDgxLjI3NCAyMzcuODIxIDc3LjM0MzRMMjU1LjYxMyAxMi45NTQ2QzI1NS44NTggMTIuMDc5OSAyNTUuOTg2IDExLjE1NzIgMjU1Ljk4NiAxMC4yMDc5QzI1NS45ODYgNC41NzA2MyAyNTEuNDIxIDAgMjQ1Ljc3OCAwQzI0NS4zNDEgMCAyNDQuOTA0IDAuMDI2NjY2NSAyNDQuNDgyIDAuMDc5OTk5NEw3OS45ODI0IDI0LjM4OTFDNjIuMTE1OCAyNy4yNTg1IDQ3LjY4OTMgNDAuNDM3IDQzLjAwNjcgNTcuNjI2MkwxOS4yODQyIDE0My42MDRDMjQuMDQ2OCAxMjYuMjEyIDI2Ljk3NDggMTE1LjcyNyA1Ni45NTMyIDExMC4zMDNaIi8+CjxwYXRoIGZpbGw9InVybCgjcGFpbnQ0X2xpbmVhcl8xMjYzXzEyNDU5MCkiIGQ9Ik01Ni45NTMyIDExMC4zMDNMMjI5LjM1MiA4NC44MzY3QzIzMy40NTMgODQuMjc2NyAyMzYuNzc2IDgxLjI3NCAyMzcuODIxIDc3LjM0MzRMMjU1LjYxMyAxMi45NTQ2QzI1NS44NTggMTIuMDc5OSAyNTUuOTg2IDExLjE1NzIgMjU1Ljk4NiAxMC4yMDc5QzI1NS45ODYgNC41NzA2MyAyNTEuNDIxIDAgMjQ1Ljc3OCAwQzI0NS4zNDEgMCAyNDQuOTA0IDAuMDI2NjY2NSAyNDQuNDgyIDAuMDc5OTk5NEw3OS45ODI0IDI0LjM4OTFDNjIuMTE1OCAyNy4yNTg1IDQ3LjY4OTMgNDAuNDM3IDQzLjAwNjcgNTcuNjI2MkwxOS4yODQyIDE0My42MDRDMjQuMDQ2OCAxMjYuMjEyIDI2Ljk3NDggMTE1LjcyNyA1Ni45NTMyIDExMC4zMDNaIi8+CjxwYXRoIGZpbGw9InVybCgjcGFpbnQ1X2xpbmVhcl8xMjYzXzEyNDU5MCkiIGQ9Ik01Ni45NTMyIDExMC4zMDNMMjI5LjM1MiA4NC44MzY3QzIzMy40NTMgODQuMjc2NyAyMzYuNzc2IDgxLjI3NCAyMzcuODIxIDc3LjM0MzRMMjU1LjYxMyAxMi45NTQ2QzI1NS44NTggMTIuMDc5OSAyNTUuOTg2IDExLjE1NzIgMjU1Ljk4NiAxMC4yMDc5QzI1NS45ODYgNC41NzA2MyAyNTEuNDIxIDAgMjQ1Ljc3OCAwQzI0NS4zNDEgMCAyNDQuOTA0IDAuMDI2NjY2NSAyNDQuNDgyIDAuMDc5OTk5NEw3OS45ODI0IDI0LjM4OTFDNjIuMTE1OCAyNy4yNTg1IDQ3LjY4OTMgNDAuNDM3IDQzLjAwNjcgNTcuNjI2MkwxOS4yODQyIDE0My42MDRDMjQuMDQ2OCAxMjYuMjEyIDI2Ljk3NDggMTE1LjcyNyA1Ni45NTMyIDExMC4zMDNaIi8+CjxwYXRoIGZpbGw9InVybCgjcGFpbnQ2X2xpbmVhcl8xMjYzXzEyNDU5MCkiIGQ9Ik01Ni45NTMyIDExMC4zMDNMMjI5LjM1MiA4NC44MzY3QzIzMy40NTMgODQuMjc2NyAyMzYuNzc2IDgxLjI3NCAyMzcuODIxIDc3LjM0MzRMMjU1LjYxMyAxMi45NTQ2QzI1NS44NTggMTIuMDc5OSAyNTUuOTg2IDExLjE1NzIgMjU1Ljk4NiAxMC4yMDc5QzI1NS45ODYgNC41NzA2MyAyNTEuNDIxIDAgMjQ1Ljc3OCAwQzI0NS4zNDEgMCAyNDQuOTA0IDAuMDI2NjY2NSAyNDQuNDgyIDAuMDc5OTk5NEw3OS45ODI0IDI0LjM4OTFDNjIuMTE1OCAyNy4yNTg1IDQ3LjY4OTMgNDAuNDM3IDQzLjAwNjcgNTcuNjI2MkwxOS4yODQyIDE0My42MDRDMjQuMDQ2OCAxMjYuMjEyIDI2Ljk3NDggMTE1LjcyNyA1Ni45NTMyIDExMC4zMDNaIi8+CjxwYXRoIGZpbGw9InVybCgjcGFpbnQ3X2xpbmVhcl8xMjYzXzEyNDU5MCkiIGQ9Ik01Ni45NTMyIDExMC4zMDNMMjI5LjM1MiA4NC44MzY3QzIzMy40NTMgODQuMjc2NyAyMzYuNzc2IDgxLjI3NCAyMzcuODIxIDc3LjM0MzRMMjU1LjYxMyAxMi45NTQ2QzI1NS44NTggMTIuMDc5OSAyNTUuOTg2IDExLjE1NzIgMjU1Ljk4NiAxMC4yMDc5QzI1NS45ODYgNC41NzA2MyAyNTEuNDIxIDAgMjQ1Ljc3OCAwQzI0NS4zNDEgMCAyNDQuOTA0IDAuMDI2NjY2NSAyNDQuNDgyIDAuMDc5OTk5NEw3OS45ODI0IDI0LjM4OTFDNjIuMTE1OCAyNy4yNTg1IDQ3LjY4OTMgNDAuNDM3IDQzLjAwNjcgNTcuNjI2MkwxOS4yODQyIDE0My42MDRDMjQuMDQ2OCAxMjYuMjEyIDI2Ljk3NDggMTE1LjcyNyA1Ni45NTMyIDExMC4zMDNaIi8+CjxwYXRoIGZpbGw9InVybCgjcGFpbnQ4X2xpbmVhcl8xMjYzXzEyNDU5MCkiIGQ9Ik01Ni45NTMyIDExMC4zMDNMMjI5LjM1MiA4NC44MzY3QzIzMy40NTMgODQuMjc2NyAyMzYuNzc2IDgxLjI3NCAyMzcuODIxIDc3LjM0MzRMMjU1LjYxMyAxMi45NTQ2QzI1NS44NTggMTIuMDc5OSAyNTUuOTg2IDExLjE1NzIgMjU1Ljk4NiAxMC4yMDc5QzI1NS45ODYgNC41NzA2MyAyNTEuNDIxIDAgMjQ1Ljc3OCAwQzI0NS4zNDEgMCAyNDQuOTA0IDAuMDI2NjY2NSAyNDQuNDgyIDAuMDc5OTk5NEw3OS45ODI0IDI0LjM4OTFDNjIuMTE1OCAyNy4yNTg1IDQ3LjY4OTMgNDAuNDM3IDQzLjAwNjcgNTcuNjI2MkwxOS4yODQyIDE0My42MDRDMjQuMDQ2OCAxMjYuMjEyIDI2Ljk3NDggMTE1LjcyNyA1Ni45NTMyIDExMC4zMDNaIi8+CjxwYXRoIGZpbGwtb3BhY2l0eT0iMC40IiBmaWxsPSJ1cmwoI3BhaW50OV9saW5lYXJfMTI2M18xMjQ1OTApIiBkPSJNNTYuOTUzMiAxMTAuMzAzTDIyOS4zNTIgODQuODM2N0MyMzMuNDUzIDg0LjI3NjcgMjM2Ljc3NiA4MS4yNzQgMjM3LjgyMSA3Ny4zNDM0TDI1NS42MTMgMTIuOTU0NkMyNTUuODU4IDEyLjA3OTkgMjU1Ljk4NiAxMS4xNTcyIDI1NS45ODYgMTAuMjA3OUMyNTUuOTg2IDQuNTcwNjMgMjUxLjQyMSAwIDI0NS43NzggMEMyNDUuMzQxIDAgMjQ0LjkwNCAwLjAyNjY2NjUgMjQ0LjQ4MiAwLjA3OTk5OTRMNzkuOTgyNCAyNC4zODkxQzYyLjExNTggMjcuMjU4NSA0Ny42ODkzIDQwLjQzNyA0My4wMDY3IDU3LjYyNjJMMTkuMjg0MiAxNDMuNjA0QzI0LjA0NjggMTI2LjIxMiAyNi45NzQ4IDExNS43MjcgNTYuOTUzMiAxMTAuMzAzWiIvPgo8cGF0aCBmaWxsPSJ1cmwoI3BhaW50MTBfbGluZWFyXzEyNjNfMTI0NTkwKSIgZD0iTTU2Ljk1MjcgMTEwLjMwOUMzMS45ODc2IDExNC44MjcgMjUuNzkwMyAxMjIuODY5IDIxLjY2MjMgMTM1LjQ3MkwxLjc4NTE2IDIwOC40OUMxLjc4NTE2IDIwOC40OSA4LjEzNzExIDE4NS4yNDIgMzguODc4MiAxODAuMjcxTDE1Ni4zMzMgMTYzLjE2MkwxNTcuMjAzIDE2My4wMThDMTYxLjUwNyAxNjIuMzYyIDE2NC45NzkgMTU5LjE4OSAxNjYuMDgzIDE1NS4wNjFMMTgzLjU1NCA5MS42MDU1TDU2Ljk1ODEgMTEwLjMwOUg1Ni45NTI3WiIvPgo8cGF0aCBmaWxsLW9wYWNpdHk9IjAuMiIgZmlsbD0idXJsKCNwYWludDExX2xpbmVhcl8xMjYzXzEyNDU5MCkiIGQ9Ik01Ni45NTI3IDExMC4zMDlDMzEuOTg3NiAxMTQuODI3IDI1Ljc5MDMgMTIyLjg2OSAyMS42NjIzIDEzNS40NzJMMS43ODUxNiAyMDguNDlDMS43ODUxNiAyMDguNDkgOC4xMzcxMSAxODUuMjQyIDM4Ljg3ODIgMTgwLjI3MUwxNTYuMzMzIDE2My4xNjJMMTU3LjIwMyAxNjMuMDE4QzE2MS41MDcgMTYyLjM2MiAxNjQuOTc5IDE1OS4xODkgMTY2LjA4MyAxNTUuMDYxTDE4My41NTQgOTEuNjA1NUw1Ni45NTgxIDExMC4zMDlINTYuOTUyN1oiLz4KPHBhdGggZmlsbD0idXJsKCNwYWludDEyX2xpbmVhcl8xMjYzXzEyNDU5MCkiIGQ9Ik0zOC44Nzk4IDE4MC4yNzJDMTIuOTAxMyAxODQuNDc1IDQuMzY4MDQgMjAxLjY4IDIuMzM2MDYgMjA2LjkyM0MwLjgzMjA2OSAyMTAuOTAxIDAuMDEwNzQyMiAyMTUuMjA1IDAuMDEwNzQyMiAyMTkuNzAxQzAuMDEwNzQyMiAyMzguMjQgMTQuMDE2IDI1My41MDQgMzIuMDIxMiAyNTUuNDk4QzM3LjA4NzggMjU2LjIyOSA0Mi44MjExIDI1Ni4xOTIgNDkuMjQ3NyAyNTUuMjQ4TDc4Ljc3MjggMjUxLjE3M0M4Ni4xOTY3IDI1MC4xNDkgOTIuMjkyNyAyNDQuNzg5IDk0LjI2NiAyMzcuNTU3TDExMi43ODkgMTY5LjUxTDM4Ljg4NTEgMTgwLjI3OEwzOC44Nzk4IDE4MC4yNzJaIiBjbGlwLXJ1bGU9ImV2ZW5vZGQiIGZpbGwtcnVsZT0iZXZlbm9kZCIvPgo8L2c+CjxkZWZzPgo8bGluZWFyR3JhZGllbnQgZ3JhZGllbnRVbml0cz0idXNlclNwYWNlT25Vc2UiIHkyPSIxNjIuOTIyIiB4Mj0iNTcuMjk1NiIgeTE9IjI1Ni4wMDQiIHgxPSI1Ny4yOTU2IiBpZD0icGFpbnQwX2xpbmVhcl8xMjYzXzEyNDU5MCI+CjxzdG9wIHN0b3AtY29sb3I9IiMyQUFDOTQiIG9mZnNldD0iMC4wNTYiLz4KPHN0b3Agc3RvcC1jb2xvcj0iIzIzOUM4NyIgb2Zmc2V0PSIwLjE1NSIvPgo8c3RvcCBzdG9wLWNvbG9yPSIjMTc3RTcxIiBvZmZzZXQ9IjAuMzcyIi8+CjxzdG9wIHN0b3AtY29sb3I9IiMwRTY5NjEiIG9mZnNldD0iMC41ODgiLz4KPHN0b3Agc3RvcC1jb2xvcj0iIzA5NUQ1NyIgb2Zmc2V0PSIwLjc5OSIvPgo8c3RvcCBzdG9wLWNvbG9yPSIjMDg1OTU0IiBvZmZzZXQ9IjEiLz4KPC9saW5lYXJHcmFkaWVudD4KPGxpbmVhckdyYWRpZW50IGdyYWRpZW50VW5pdHM9InVzZXJTcGFjZU9uVXNlIiB5Mj0iOTAuNzA0MiIgeDI9Ijg1LjAzMjUiIHkxPSIxODguNDY1IiB4MT0iMTc0LjkxNiIgaWQ9InBhaW50MV9saW5lYXJfMTI2M18xMjQ1OTAiPgo8c3RvcCBzdG9wLWNvbG9yPSIjQUJFODhFIiBvZmZzZXQ9IjAuMDQxNzQ3OCIvPgo8c3RvcCBzdG9wLWNvbG9yPSIjMkFBQTkyIiBvZmZzZXQ9IjAuNTQ4OTI2Ii8+CjxzdG9wIHN0b3AtY29sb3I9IiMxMTc4NjUiIG9mZnNldD0iMC45MDYiLz4KPC9saW5lYXJHcmFkaWVudD4KPGxpbmVhckdyYWRpZW50IGdyYWRpZW50VW5pdHM9InVzZXJTcGFjZU9uVXNlIiB5Mj0iMTU0LjU0MiIgeDI9IjM5LjU3MTEiIHkxPSIxODMuNzEyIiB4MT0iLTQ1Ljk2NiIgaWQ9InBhaW50Ml9saW5lYXJfMTI2M18xMjQ1OTAiPgo8c3RvcCBzdG9wLWNvbG9yPSIjNkFENkY5Ii8+CjxzdG9wIHN0b3Atb3BhY2l0eT0iMCIgc3RvcC1jb2xvcj0iIzZBRDZGOSIgb2Zmc2V0PSIxIi8+CjwvbGluZWFyR3JhZGllbnQ+CjxsaW5lYXJHcmFkaWVudCBncmFkaWVudFVuaXRzPSJ1c2VyU3BhY2VPblVzZSIgeTI9IjcxLjgwMjEiIHgyPSIyNDYuOTY4IiB5MT0iNzEuODAyMSIgeDE9IjE5LjI4NDIiIGlkPSJwYWludDNfbGluZWFyXzEyNjNfMTI0NTkwIj4KPHN0b3Agc3RvcC1jb2xvcj0iIzI1RkZENCIgb2Zmc2V0PSIwLjA0MyIvPgo8c3RvcCBzdG9wLWNvbG9yPSIjNTVEREI5IiBvZmZzZXQ9IjAuODc0Ii8+CjwvbGluZWFyR3JhZGllbnQ+CjxsaW5lYXJHcmFkaWVudCBncmFkaWVudFVuaXRzPSJ1c2VyU3BhY2VPblVzZSIgeTI9IjExNC42MTIiIHgyPSIxNTUuNzQ3IiB5MT0iOS45MDkyNiIgeDE9IjEwNi45MjEiIGlkPSJwYWludDRfbGluZWFyXzEyNjNfMTI0NTkwIj4KPHN0b3Agc3RvcC1vcGFjaXR5PSIwLjYiIHN0b3AtY29sb3I9IiNGNEUwODQiLz4KPHN0b3Agc3RvcC1vcGFjaXR5PSIwIiBzdG9wLWNvbG9yPSIjRjRFMDg0IiBvZmZzZXQ9IjAuNTM0Ii8+CjwvbGluZWFyR3JhZGllbnQ+CjxsaW5lYXJHcmFkaWVudCBncmFkaWVudFVuaXRzPSJ1c2VyU3BhY2VPblVzZSIgeTI9IjQ1LjgzNSIgeDI9IjI1My45OCIgeTE9Ii01NS4yNjQxIiB4MT0iMTg4LjE2MiIgaWQ9InBhaW50NV9saW5lYXJfMTI2M18xMjQ1OTAiPgo8c3RvcCBzdG9wLWNvbG9yPSIjQUJGNUUyIi8+CjxzdG9wIHN0b3AtY29sb3I9IiM0RUU2QkQiIG9mZnNldD0iMSIvPgo8L2xpbmVhckdyYWRpZW50Pgo8bGluZWFyR3JhZGllbnQgZ3JhZGllbnRVbml0cz0idXNlclNwYWNlT25Vc2UiIHkyPSIxNDMuNjA0IiB4Mj0iMTM3LjYzNSIgeTE9IjAiIHgxPSIxMzcuNjM1IiBpZD0icGFpbnQ2X2xpbmVhcl8xMjYzXzEyNDU5MCI+CjxzdG9wIHN0b3AtY29sb3I9IiMxRjkzN0UiLz4KPHN0b3Agc3RvcC1jb2xvcj0iIzlFRTA5RiIgb2Zmc2V0PSIxIi8+CjwvbGluZWFyR3JhZGllbnQ+CjxsaW5lYXJHcmFkaWVudCBncmFkaWVudFVuaXRzPSJ1c2VyU3BhY2VPblVzZSIgeTI9IjE0My42MDQiIHgyPSIxMzcuNjM1IiB5MT0iMCIgeDE9IjEzNy42MzUiIGlkPSJwYWludDdfbGluZWFyXzEyNjNfMTI0NTkwIj4KPHN0b3Agc3RvcC1jb2xvcj0iIzFGOTM3RSIvPgo8c3RvcCBzdG9wLWNvbG9yPSIjQzBFQ0M3IiBvZmZzZXQ9IjEiLz4KPC9saW5lYXJHcmFkaWVudD4KPGxpbmVhckdyYWRpZW50IGdyYWRpZW50VW5pdHM9InVzZXJTcGFjZU9uVXNlIiB5Mj0iMTM1LjIxNiIgeDI9IjIyNC4zODIiIHkxPSIzOS45NzgzIiB4MT0iMTkuMjg0MiIgaWQ9InBhaW50OF9saW5lYXJfMTI2M18xMjQ1OTAiPgo8c3RvcCBzdG9wLWNvbG9yPSIjNkFENkY5Ii8+CjxzdG9wIHN0b3AtY29sb3I9IiM2MEU5RDAiIG9mZnNldD0iMC4yMjk1MDEiLz4KPHN0b3Agc3RvcC1jb2xvcj0iIzZERTlCQiIgb2Zmc2V0PSIwLjY1MDcxMSIvPgo8c3RvcCBzdG9wLWNvbG9yPSIjQUJFODhFIiBvZmZzZXQ9IjAuOTkzNTQiLz4KPC9saW5lYXJHcmFkaWVudD4KPGxpbmVhckdyYWRpZW50IGdyYWRpZW50VW5pdHM9InVzZXJTcGFjZU9uVXNlIiB5Mj0iODIuNDY2IiB4Mj0iMTQ5Ljc4MSIgeTE9IjU3LjgiIHgxPSIzOC4yNTgiIGlkPSJwYWludDlfbGluZWFyXzEyNjNfMTI0NTkwIj4KPHN0b3Agc3RvcC1vcGFjaXR5PSIwIiBzdG9wLWNvbG9yPSJ3aGl0ZSIvPgo8c3RvcCBzdG9wLWNvbG9yPSJ3aGl0ZSIgb2Zmc2V0PSIwLjQ1ODUxMSIvPgo8c3RvcCBzdG9wLW9wYWNpdHk9IjAiIHN0b3AtY29sb3I9IndoaXRlIiBvZmZzZXQ9IjEiLz4KPC9saW5lYXJHcmFkaWVudD4KPGxpbmVhckdyYWRpZW50IGdyYWRpZW50VW5pdHM9InVzZXJTcGFjZU9uVXNlIiB5Mj0iNzUuMTMyOCIgeDI9Ijc3Ljg3MjIiIHkxPSIxNTMuMzQxIiB4MT0iNzUuMjM3IiBpZD0icGFpbnQxMF9saW5lYXJfMTI2M18xMjQ1OTAiPgo8c3RvcCBzdG9wLW9wYWNpdHk9IjAiIHN0b3AtY29sb3I9IiMwNjNEM0IiIG9mZnNldD0iMC4yMDQ2NDIiLz4KPHN0b3Agc3RvcC1vcGFjaXR5PSIwLjIzNjU4NyIgc3RvcC1jb2xvcj0iIzA2M0QzQiIgb2Zmc2V0PSIwLjU4NTUzIi8+CjxzdG9wIHN0b3Atb3BhY2l0eT0iMC43NSIgc3RvcC1jb2xvcj0iIzA2M0QzQiIgb2Zmc2V0PSIwLjg3MjI4NSIvPgo8L2xpbmVhckdyYWRpZW50Pgo8bGluZWFyR3JhZGllbnQgZ3JhZGllbnRVbml0cz0idXNlclNwYWNlT25Vc2UiIHkyPSIxNjMuNDg3IiB4Mj0iODcuNjg2MSIgeTE9IjE0NS41NjMiIHgxPSItNy42MTc5NyIgaWQ9InBhaW50MTFfbGluZWFyXzEyNjNfMTI0NTkwIj4KPHN0b3Agc3RvcC1vcGFjaXR5PSIwIiBzdG9wLWNvbG9yPSJ3aGl0ZSIvPgo8c3RvcCBzdG9wLWNvbG9yPSJ3aGl0ZSIgb2Zmc2V0PSIwLjQ1ODUxMSIvPgo8c3RvcCBzdG9wLW9wYWNpdHk9IjAiIHN0b3AtY29sb3I9IndoaXRlIiBvZmZzZXQ9IjEiLz4KPC9saW5lYXJHcmFkaWVudD4KPGxpbmVhckdyYWRpZW50IGdyYWRpZW50VW5pdHM9InVzZXJTcGFjZU9uVXNlIiB5Mj0iMTM5LjI5MiIgeDI9IjQyLjYzNTkiIHkxPSIyMzAuMjEzIiB4MT0iNjEuMjI2MyIgaWQ9InBhaW50MTJfbGluZWFyXzEyNjNfMTI0NTkwIj4KPHN0b3Agc3RvcC1vcGFjaXR5PSIwIiBzdG9wLWNvbG9yPSIjMDYzRDNCIiBvZmZzZXQ9IjAuMDY0Ii8+CjxzdG9wIHN0b3Atb3BhY2l0eT0iMC4xMzUiIHN0b3AtY29sb3I9IiMwNjNEM0IiIG9mZnNldD0iMC4xNyIvPgo8c3RvcCBzdG9wLW9wYWNpdHk9IjAuNTk5IiBzdG9wLWNvbG9yPSIjMDYzRDNCIiBvZmZzZXQ9IjAuNTYyIi8+CjxzdG9wIHN0b3Atb3BhY2l0eT0iMC45IiBzdG9wLWNvbG9yPSIjMDYzRDNCIiBvZmZzZXQ9IjAuODUiLz4KPHN0b3Agc3RvcC1jb2xvcj0iIzA2M0QzQiIgb2Zmc2V0PSIxIi8+CjwvbGluZWFyR3JhZGllbnQ+CjxjbGlwUGF0aCBpZD0iY2xpcDBfMTI2M18xMjQ1OTAiPgo8cmVjdCBmaWxsPSJ3aGl0ZSIgaGVpZ2h0PSIyNTUuOTk4IiB3aWR0aD0iMjU1Ljk5OCIvPgo8L2NsaXBQYXRoPgo8L2RlZnM+Cjwvc3ZnPg==;" parent="1" vertex="1">
                    <mxGeometry x="627.25" y="90" width="28" height="28" as="geometry"/>
                </mxCell>
                <mxCell id="60" value="&lt;b&gt;Workspace&lt;br&gt;&lt;/b&gt;ID: &lt;font color=&quot;#ff0000&quot;&gt;ABC&lt;/font&gt;&lt;br&gt;&lt;font color=&quot;#ffffff&quot;&gt;Member: &lt;/font&gt;&lt;font color=&quot;#66ffff&quot;&gt;Svc Principal A&lt;/font&gt;" style="rounded=0;whiteSpace=wrap;html=1;verticalAlign=top;align=right;labelBackgroundColor=none;fillColor=#4D4D4D;spacingRight=5;" parent="1" vertex="1">
                    <mxGeometry x="627" y="130" width="200" height="120" as="geometry"/>
                </mxCell>
                <mxCell id="59" value="" style="shape=image;verticalLabelPosition=bottom;labelBackgroundColor=default;verticalAlign=top;aspect=fixed;imageAspect=0;image=data:image/svg+xml,PHN2ZyB4bWxucz0iaHR0cDovL3d3dy53My5vcmcvMjAwMC9zdmciIGZpbGw9Im5vbmUiIHZpZXdCb3g9IjAgMCAzMiAzMiIgaGVpZ2h0PSIzMiIgd2lkdGg9IjMyIj4KPHBhdGggZmlsbD0iYmxhY2siIGQ9Ik0yIDdDMiA1LjM0MzE1IDMuMzQzMTUgNCA1IDRIMTlDMjAuNjU2OSA0IDIyIDUuMzQzMTUgMjIgN1YxN0MyMiAxOC42NTY5IDIwLjY1NjkgMjAgMTkgMjBINUMzLjM0MzE1IDIwIDIgMTguNjU2OSAyIDE3VjdaTTUgNkM0LjQ0NzcyIDYgNCA2LjQ0NzcyIDQgN1YxN0M0IDE3LjU1MjMgNC40NDc3MiAxOCA1IDE4SDE5QzE5LjU1MjMgMTggMjAgMTcuNTUyMyAyMCAxN1Y3QzIwIDYuNDQ3NzIgMTkuNTUyMyA2IDE5IDZINVpNMTAuMTY5OSAyNS45OTk5QzEwLjU4MTggMjcuMTY1MSAxMS42OTMgMjcuOTk5OSAxMi45OTkyIDI3Ljk5OTlIMTguOTk5MkMyNS4wNzQzIDI3Ljk5OTkgMjkuOTk5MiAyMy4wNzUxIDI5Ljk5OTIgMTYuOTk5OVYxNC45OTk5QzI5Ljk5OTIgMTMuNjkzNyAyOS4xNjQ0IDEyLjU4MjUgMjcuOTk5MiAxMi4xNzA3VjE2Ljk5OTlDMjcuOTk5MiAyMS45NzA1IDIzLjk2OTggMjUuOTk5OSAxOC45OTkyIDI1Ljk5OTlIMTAuMTY5OVpNOC45OTkyMiAyMy45OTk5QzcuNjkzIDIzLjk5OTkgNi41ODE3NiAyMy4xNjUxIDYuMTY5OTIgMjEuOTk5OUgxOC45OTkyQzIxLjc2MDYgMjEuOTk5OSAyMy45OTkyIDE5Ljc2MTQgMjMuOTk5MiAxNi45OTk5VjguMTcwNjVDMjUuMTY0NCA4LjU4MjQ5IDI1Ljk5OTIgOS42OTM3MyAyNS45OTkyIDEwLjk5OTlWMTYuOTk5OUMyNS45OTkyIDIwLjg2NTkgMjIuODY1MiAyMy45OTk5IDE4Ljk5OTIgMjMuOTk5OUg4Ljk5OTIyWiIvPgo8L3N2Zz4=;imageBackground=#FFFFFF;" parent="1" vertex="1">
                    <mxGeometry x="635.25" y="150" width="30" height="30" as="geometry"/>
                </mxCell>
                <mxCell id="61" value="&lt;b&gt;Lakehouse&lt;/b&gt;&lt;br&gt;ID: &lt;font color=&quot;#3333ff&quot;&gt;DEF&lt;/font&gt;" style="rounded=0;whiteSpace=wrap;html=1;verticalAlign=top;labelBackgroundColor=default;align=right;spacingRight=5;spacingLeft=5;fillColor=#1A1A1A;" parent="1" vertex="1">
                    <mxGeometry x="635" y="190" width="182" height="50" as="geometry"/>
                </mxCell>
                <mxCell id="62" value="" style="shape=image;verticalLabelPosition=bottom;labelBackgroundColor=#a58cc5;verticalAlign=top;aspect=fixed;imageAspect=0;image=data:image/svg+xml,PHN2ZyB4bWxucz0iaHR0cDovL3d3dy53My5vcmcvMjAwMC9zdmciIGZpbGw9Im5vbmUiIHZpZXdCb3g9IjAgMCAzMiAzMyIgaGVpZ2h0PSIzMyIgd2lkdGg9IjMyIj4KPHBhdGggZmlsbD0iYmxhY2siIGQ9Ik0xMi42MjYgNC4zOTAwMkMxMy4zOTcgMy42NjE3NCAxNC42MDMgMy42NjE3NCAxNS4zNzQgNC4zOTAwMkwyNS4wNjEgMTMuNTQwM0MyNS42NjA0IDE0LjEwNjQgMjYgMTQuODk0MSAyNiAxNS43MTgyVjE4LjYwNjJDMjUuNzk5IDE4LjQyNjQgMjUuNTc0IDE4LjI3NCAyNS4zMzA3IDE4LjE1MzhDMjQuOTE3IDE3Ljk0OTIgMjQuNDYxNSAxNy44NDMyIDI0IDE3Ljg0MzhWMTUuNzE4MkMyNCAxNS40NDM1IDIzLjg4NjggMTUuMTgxIDIzLjY4NyAxNC45OTIyTDE0IDUuODQxOThMNC4zMTI5OSAxNC45OTIyQzQuMTEzMiAxNS4xODEgNCAxNS40NDM1IDQgMTUuNzE4MlYyNi44NDY2QzQgMjcuMzk4MyA0LjQ0NzcyIDI3Ljg0NTYgNSAyNy44NDU2SDguNzYyM0M4LjI3MjY3IDI4LjM5MzkgOCAyOS4xMDQ4IDggMjkuODQzOEw1IDI5Ljg0MzhDMy4zNDMxNCAyOS44NDM4IDIgMjguNTAxOSAyIDI2Ljg0NjZWMTUuNzE4MkMyIDE0Ljg5NDEgMi4zMzk2MSAxNC4xMDY0IDIuOTM4OTYgMTMuNTQwM0wxMi42MjYgNC4zOTAwMloiLz4KPHBhdGggZmlsbD0iYmxhY2siIGQ9Ik0yOSAyMi44NDM3QzI4LjM5NzkgMjIuODc3MyAyNy43OTUyIDIyLjc4NzYgMjcuMjI4OSAyMi41OEMyNi42NjI3IDIyLjM3MjUgMjYuMTQ0OCAyMi4wNTE1IDI1LjcwNyAyMS42MzY3QzI1LjQ2NTggMjEuMzk2NCAyNS4yNTkxIDIxLjEyMzggMjUuMDkzIDIwLjgyNjdDMjUuMDUyNiAyMC43NTA2IDI1LjAxNjMgMjAuNjcyNSAyNC45ODQgMjAuNTkyN0MyNC45NDkzIDIwLjUwNTkgMjQuOTA5MiAyMC40MjE0IDI0Ljg2NCAyMC4zMzk3QzI0Ljg0MzcgMjAuMzA1IDI0LjgyMTQgMjAuMjcxNiAyNC43OTcgMjAuMjM5N0MyNC42NzE5IDIwLjA3NTMgMjQuNDk5IDE5Ljk1MzcgMjQuMzAyMSAxOS44OTE2QzI0LjEwNTEgMTkuODI5NSAyMy44OTM3IDE5LjgyOTggMjMuNjk3IDE5Ljg5MjdIMjMuNjg3QzIzLjQ1NjYgMTkuOTcwOSAyMy4yNjE4IDIwLjEyOTIgMjMuMTM4IDIwLjMzODdDMjMuMDg2MSAyMC40MzUzIDIzLjA0MTMgMjAuNTM1NSAyMy4wMDQgMjAuNjM4N0wyMi45OTM1IDIwLjY2NDhDMjIuOTY2MSAyMC43MzMyIDIyLjkzODYgMjAuODAxOSAyMi45MDQgMjAuODY2N0MyMi43NTQxIDIxLjE2NiAyMi41NzA5IDIxLjQ0NzQgMjIuMzU4IDIxLjcwNTdDMjIuMDc2NSAyMi4wNjExIDIxLjcxODIgMjIuMzQ4MiAyMS4zMTAxIDIyLjU0NTVDMjAuOTAxOSAyMi43NDI5IDIwLjQ1NDQgMjIuODQ1NCAyMC4wMDEgMjIuODQ1NEMxOS41NDc2IDIyLjg0NTQgMTkuMTAwMSAyMi43NDI5IDE4LjY5MTkgMjIuNTQ1NUMxOC4yODM4IDIyLjM0ODIgMTcuOTI1NSAyMi4wNjExIDE3LjY0NCAyMS43MDU3QzE3LjQzMTEgMjEuNDQ3NCAxNy4yNDc5IDIxLjE2NiAxNy4wOTggMjAuODY2N0MxNy4wNzExIDIwLjgxMzYgMTcuMDQ3OSAyMC43NTc5IDE3LjAyNDYgMjAuNzAxOUMxNy4wMTU4IDIwLjY4MDggMTcuMDA3IDIwLjY1OTcgMTYuOTk4IDIwLjYzODdDMTYuOTYwNyAyMC41MzU1IDE2LjkxNTkgMjAuNDM1MyAxNi44NjQgMjAuMzM4N0MxNi43NDAyIDIwLjEyOTIgMTYuNTQ1NCAxOS45NzA5IDE2LjMxNSAxOS44OTI3SDE2LjMwNUMxNi4xMDgzIDE5LjgyOTggMTUuODk2OSAxOS44Mjk1IDE1LjY5OTkgMTkuODkxNkMxNS41MDMgMTkuOTUzNyAxNS4zMzAxIDIwLjA3NTMgMTUuMjA1IDIwLjIzOTdDMTUuMTgwNiAyMC4yNzE2IDE1LjE1ODMgMjAuMzA1IDE1LjEzOCAyMC4zMzk3QzE1LjA5MjggMjAuNDIxNCAxNS4wNTI3IDIwLjUwNTkgMTUuMDE4IDIwLjU5MjdDMTQuOTg1NyAyMC42NzI1IDE0Ljk0OTQgMjAuNzUwNiAxNC45MDkgMjAuODI2N0MxNC43NDI5IDIxLjEyMzggMTQuNTM2MiAyMS4zOTY0IDE0LjI5NSAyMS42MzY3QzEzLjg1NyAyMi4wNTE3IDEzLjMzODcgMjIuMzcyOSAxMi43NzIxIDIyLjU4MDRDMTIuMjA1NSAyMi43ODggMTEuNjAyNSAyMi44Nzc2IDExIDIyLjg0MzdDMTAuNzM0OCAyMi44NDM3IDEwLjQ4MDQgMjIuOTQ5IDEwLjI5MjkgMjMuMTM2NkMxMC4xMDU0IDIzLjMyNDEgMTAgMjMuNTc4NSAxMCAyMy44NDM3QzEwIDI0LjEwODkgMTAuMTA1NCAyNC4zNjMyIDEwLjI5MjkgMjQuNTUwOEMxMC40ODA0IDI0LjczODMgMTAuNzM0OCAyNC44NDM3IDExIDI0Ljg0MzdDMTEuODY1IDI0Ljg3NzkgMTIuNzI3OSAyNC43MzY3IDEzLjUzNjkgMjQuNDI4NkMxNC4zNDU4IDI0LjEyMDQgMTUuMDg0IDIzLjY1MTcgMTUuNzA3IDIzLjA1MDdDMTUuNzk0IDIyLjk2MzcgMTUuODc2IDIyLjg3NjcgMTUuOTUyIDIyLjc4OTdDMTYuMDAxIDIyLjg1NDcgMTYuMDUyIDIyLjkxODcgMTYuMTA3IDIyLjk4MzdDMTYuNTc1NiAyMy41NjUxIDE3LjE2ODYgMjQuMDM0MiAxNy44NDIyIDI0LjM1NjVDMTguNTE1OSAyNC42Nzg4IDE5LjI1MzIgMjQuODQ2MSAyMCAyNC44NDYxQzIwLjc0NjggMjQuODQ2MSAyMS40ODQxIDI0LjY3ODggMjIuMTU3OCAyNC4zNTY1QzIyLjgzMTQgMjQuMDM0MiAyMy40MjQ0IDIzLjU2NTEgMjMuODkzIDIyLjk4MzdDMjMuOTQ3IDIyLjkxODcgMjMuOTk5IDIyLjg1NDcgMjQuMDQ4IDIyLjc4OTdDMjQuMTI0IDIyLjg3NjcgMjQuMjA2IDIyLjk2MzcgMjQuMjkzIDIzLjA1MDdDMjQuOTE2IDIzLjY1MTcgMjUuNjU0MiAyNC4xMjA0IDI2LjQ2MzEgMjQuNDI4NkMyNy4yNzIxIDI0LjczNjcgMjguMTM1IDI0Ljg3NzkgMjkgMjQuODQzN0MyOS4yNjUyIDI0Ljg0MzcgMjkuNTE5NiAyNC43MzgzIDI5LjcwNzEgMjQuNTUwOEMyOS44OTQ2IDI0LjM2MzIgMzAgMjQuMTA4OSAzMCAyMy44NDM3QzMwIDIzLjU3ODUgMjkuODk0NiAyMy4zMjQxIDI5LjcwNzEgMjMuMTM2NkMyOS41MTk2IDIyLjk0OSAyOS4yNjUyIDIyLjg0MzcgMjkgMjIuODQzN1oiLz4KPHBhdGggZmlsbD0iYmxhY2siIGQ9Ik0yOSAyOC44NDM3QzI4LjM5NzkgMjguODc3MyAyNy43OTUyIDI4Ljc4NzYgMjcuMjI4OSAyOC41OEMyNi42NjI3IDI4LjM3MjUgMjYuMTQ0OCAyOC4wNTE1IDI1LjcwNyAyNy42MzY3QzI1LjQ2NTggMjcuMzk2NCAyNS4yNTkxIDI3LjEyMzggMjUuMDkzIDI2LjgyNjdDMjUuMDUyNiAyNi43NTA2IDI1LjAxNjMgMjYuNjcyNSAyNC45ODQgMjYuNTkyN0MyNC45NDkzIDI2LjUwNTkgMjQuOTA5MiAyNi40MjE0IDI0Ljg2NCAyNi4zMzk3QzI0Ljg0MzcgMjYuMzA1IDI0LjgyMTQgMjYuMjcxNiAyNC43OTcgMjYuMjM5N0MyNC42NzE5IDI2LjA3NTMgMjQuNDk5IDI1Ljk1MzcgMjQuMzAyMSAyNS44OTE2QzI0LjEwNTEgMjUuODI5NSAyMy44OTM3IDI1LjgyOTggMjMuNjk3IDI1Ljg5MjdIMjMuNjg3QzIzLjQ1NjYgMjUuOTcwOSAyMy4yNjE4IDI2LjEyOTIgMjMuMTM4IDI2LjMzODdDMjMuMDg2MSAyNi40MzUzIDIzLjA0MTMgMjYuNTM1NSAyMy4wMDQgMjYuNjM4N0wyMi45OTM1IDI2LjY2NDhDMjIuOTY2MSAyNi43MzMyIDIyLjkzODYgMjYuODAxOSAyMi45MDQgMjYuODY2N0MyMi43NTQxIDI3LjE2NiAyMi41NzA5IDI3LjQ0NzQgMjIuMzU4IDI3LjcwNTdDMjIuMDc2NSAyOC4wNjExIDIxLjcxODIgMjguMzQ4MiAyMS4zMTAxIDI4LjU0NTVDMjAuOTAxOSAyOC43NDI5IDIwLjQ1NDQgMjguODQ1NCAyMC4wMDEgMjguODQ1NEMxOS41NDc2IDI4Ljg0NTQgMTkuMTAwMSAyOC43NDI5IDE4LjY5MTkgMjguNTQ1NUMxOC4yODM4IDI4LjM0ODIgMTcuOTI1NSAyOC4wNjExIDE3LjY0NCAyNy43MDU3QzE3LjQzMTEgMjcuNDQ3NCAxNy4yNDc5IDI3LjE2NiAxNy4wOTggMjYuODY2N0MxNy4wNzExIDI2LjgxMzYgMTcuMDQ3OSAyNi43NTc5IDE3LjAyNDYgMjYuNzAxOUMxNy4wMTU4IDI2LjY4MDggMTcuMDA3IDI2LjY1OTcgMTYuOTk4IDI2LjYzODdDMTYuOTYwNyAyNi41MzU1IDE2LjkxNTkgMjYuNDM1MyAxNi44NjQgMjYuMzM4N0MxNi43NDAyIDI2LjEyOTIgMTYuNTQ1NCAyNS45NzA5IDE2LjMxNSAyNS44OTI3SDE2LjMwNUMxNi4xMDgzIDI1LjgyOTggMTUuODk2OSAyNS44Mjk1IDE1LjY5OTkgMjUuODkxNkMxNS41MDMgMjUuOTUzNyAxNS4zMzAxIDI2LjA3NTMgMTUuMjA1IDI2LjIzOTdDMTUuMTgwNiAyNi4yNzE2IDE1LjE1ODMgMjYuMzA1IDE1LjEzOCAyNi4zMzk3QzE1LjA5MjggMjYuNDIxNCAxNS4wNTI3IDI2LjUwNTkgMTUuMDE4IDI2LjU5MjdDMTQuOTg1NyAyNi42NzI1IDE0Ljk0OTQgMjYuNzUwNiAxNC45MDkgMjYuODI2N0MxNC43NDI5IDI3LjEyMzggMTQuNTM2MiAyNy4zOTY0IDE0LjI5NSAyNy42MzY3QzEzLjg1NyAyOC4wNTE3IDEzLjMzODcgMjguMzcyOSAxMi43NzIxIDI4LjU4MDRDMTIuMjA1NSAyOC43ODggMTEuNjAyNSAyOC44Nzc2IDExIDI4Ljg0MzdDMTAuNzM0OCAyOC44NDM3IDEwLjQ4MDQgMjguOTQ5IDEwLjI5MjkgMjkuMTM2NkMxMC4xMDU0IDI5LjMyNDEgMTAgMjkuNTc4NSAxMCAyOS44NDM3QzEwIDMwLjEwODkgMTAuMTA1NCAzMC4zNjMyIDEwLjI5MjkgMzAuNTUwOEMxMC40ODA0IDMwLjczODMgMTAuNzM0OCAzMC44NDM3IDExIDMwLjg0MzdDMTEuODY1IDMwLjg3NzkgMTIuNzI3OSAzMC43MzY3IDEzLjUzNjkgMzAuNDI4NkMxNC4zNDU4IDMwLjEyMDQgMTUuMDg0IDI5LjY1MTcgMTUuNzA3IDI5LjA1MDdDMTUuNzk0IDI4Ljk2MzcgMTUuODc2IDI4Ljg3NjcgMTUuOTUyIDI4Ljc4OTdDMTYuMDAxIDI4Ljg1NDcgMTYuMDUyIDI4LjkxODcgMTYuMTA3IDI4Ljk4MzdDMTYuNTc1NiAyOS41NjUxIDE3LjE2ODYgMzAuMDM0MiAxNy44NDIyIDMwLjM1NjVDMTguNTE1OSAzMC42Nzg4IDE5LjI1MzIgMzAuODQ2MSAyMCAzMC44NDYxQzIwLjc0NjggMzAuODQ2MSAyMS40ODQxIDMwLjY3ODggMjIuMTU3OCAzMC4zNTY1QzIyLjgzMTQgMzAuMDM0MiAyMy40MjQ0IDI5LjU2NTEgMjMuODkzIDI4Ljk4MzdDMjMuOTQ3IDI4LjkxODcgMjMuOTk5IDI4Ljg1NDcgMjQuMDQ4IDI4Ljc4OTdDMjQuMTI0IDI4Ljg3NjcgMjQuMjA2IDI4Ljk2MzcgMjQuMjkzIDI5LjA1MDdDMjQuOTE2IDI5LjY1MTcgMjUuNjU0MiAzMC4xMjA0IDI2LjQ2MzEgMzAuNDI4NkMyNy4yNzIxIDMwLjczNjcgMjguMTM1IDMwLjg3NzkgMjkgMzAuODQzN0MyOS4yNjUyIDMwLjg0MzcgMjkuNTE5NiAzMC43MzgzIDI5LjcwNzEgMzAuNTUwOEMyOS44OTQ2IDMwLjM2MzIgMzAgMzAuMTA4OSAzMCAyOS44NDM3QzMwIDI5LjU3ODUgMjkuODk0NiAyOS4zMjQxIDI5LjcwNzEgMjkuMTM2NkMyOS41MTk2IDI4Ljk0OSAyOS4yNjUyIDI4Ljg0MzcgMjkgMjguODQzN1oiLz4KPC9zdmc+;strokeColor=#FFFFFF;fillColor=#33FFFF;imageBackground=#E6E6E6;" parent="1" vertex="1">
                    <mxGeometry x="645" y="203.66" width="25.54" height="26.34" as="geometry"/>
                </mxCell>
                <mxCell id="63" style="edgeStyle=orthogonalEdgeStyle;html=1;exitX=0;exitY=0.25;exitDx=0;exitDy=0;strokeColor=#66CC00;fillColor=#FF0000;entryX=0;entryY=0.5;entryDx=0;entryDy=0;" parent="1" source="35" target="64" edge="1">
                    <mxGeometry relative="1" as="geometry">
                        <mxPoint x="485" y="462.5" as="sourcePoint"/>
                        <mxPoint x="605" y="463.03999999999996" as="targetPoint"/>
                        <Array as="points">
                            <mxPoint x="527" y="432"/>
                            <mxPoint x="527" y="194"/>
                        </Array>
                    </mxGeometry>
                </mxCell>
                <mxCell id="64" value="OneLake" style="shape=image;verticalLabelPosition=bottom;labelBackgroundColor=default;verticalAlign=top;aspect=fixed;imageAspect=0;image=data:image/svg+xml,PHN2ZyB4bWxucz0iaHR0cDovL3d3dy53My5vcmcvMjAwMC9zdmciIHZpZXdCb3g9IjAgMCA0OCA0OSIgZmlsbD0iY3VycmVudENvbG9yIiBoZWlnaHQ9IjQ5IiB3aWR0aD0iNDgiPgogIDxtYXNrIHN0eWxlPSJtYXNrLXR5cGU6bHVtaW5hbmNlIiBtYXNrVW5pdHM9InVzZXJTcGFjZU9uVXNlIiB5PSI0IiB4PSI0IiBoZWlnaHQ9IjQxIiB3aWR0aD0iNDAiIGlkPSJhIj4KICAgIDxwYXRoIGQ9Ik00My40ODEgNC41SDQuNTJ2MzkuOTg1aDM4Ljk2VjQuNVoiIGZpbGw9IiNmZmYiLz4KICA8L21hc2s+CiAgPGcgbWFzaz0idXJsKCNhKSI+CiAgICA8cGF0aCBkPSJNMjIuMjEgMzMuMDQxYzUuNDg2LTMuMTY4IDcuMjkzLTEwLjMxMiA0LjAzMy0xNS45NTctMy4yNi01LjY0Ni0xMC4zNS03LjY1NC0xNS44MzYtNC40ODZDNC45MiAxNS43NjYgMy4xMTQgMjIuOTEgNi4zNzMgMjguNTU2YzMuMjYgNS42NDUgMTAuMzUgNy42NTMgMTUuODM2IDQuNDg1WiIgZmlsbD0idXJsKCNiKSIvPgogICAgPHBhdGggZD0iTTI5LjM3MSAxNy4yMTVjMi44NDktMi44NSAyLjc4LTcuNTM2LS4xNTItMTAuNDY4QzI2LjI4NyAzLjgxNiAyMS42IDMuNzUgMTguNzUxIDYuNnMtMi43OCA3LjUzNy4xNTIgMTAuNDY4YzIuOTMzIDIuOTMyIDcuNjIgMi45OTggMTAuNDY4LjE0OFoiIGZpbGw9InVybCgjYykiLz4KICAgIDxwYXRoIGQ9Ik0yNi4yOTkgNDMuNzJjOS40ODcgMCAxNy4xNzgtNy42OTEgMTcuMTc4LTE3LjE3OVMzNS43ODcgOS4zNjIgMjYuMyA5LjM2MiA5LjEyIDE3LjA1MyA5LjEyIDI2LjU0MSAxNi44MTEgNDMuNzIgMjYuMyA0My43MloiIGZpbGw9InVybCgjZCkiLz4KICAgIDxwYXRoIGNsaXAtcnVsZT0iZXZlbm9kZCIgZD0iTTE5LjU2OSA1Ljg4N2MtMTAuMDg1IDYuMjMtMTMuNjEgMTkuMzUtNy44MTUgMjkuODQ1LjM5LjcxLjgxNSAxLjM5MiAxLjI3NCAyLjAzOWwuNDUuMDY5IDkuOTY2IDMuMzI3IDkuNDY4LTYuMzQzYy0xLjU4NS4wNS04LjE4LTMuNjkzLTEyLjQ5LTExLjg3Mi01LjQtMTAuMjQ4LTMuMTczLTE0Ljk4Mi0uODQzLTE3LjA2NWgtLjAxWiIgZmlsbC1ydWxlPSJldmVub2RkIiBmaWxsPSJ1cmwoI2UpIi8+CiAgICA8cGF0aCBjbGlwLXJ1bGU9ImV2ZW5vZGQiIGQ9Ik0xOS41NjkgNS44ODdjLTEwLjA4NSA2LjIzLTEzLjYxIDE5LjM1LTcuODE1IDI5Ljg0NS4zOS43MS44MTUgMS4zOTIgMS4yNzQgMi4wMzlsLjQ1LjA2OSA5Ljk2NiAzLjMyNyA5LjQ2OC02LjM0M2MtMS41ODUuMDUtOC4xOC0zLjY5My0xMi40OS0xMS44NzItNS40LTEwLjI0OC0zLjE3My0xNC45ODItLjg0My0xNy4wNjVoLS4wMVoiIGZpbGwtcnVsZT0iZXZlbm9kZCIgZmlsbC1vcGFjaXR5PSIuMiIgZmlsbD0idXJsKCNmKSIvPgogICAgPHBhdGggY2xpcC1ydWxlPSJldmVub2RkIiBkPSJNMzkuMzY0IDM3LjY5N2ExNy4yNCAxNy4yNCAwIDAgMCAzLjYzOC03LjEwOWMtMS43MDgtNC44NzctOC41OC02LjI0OS0xMi4zNC0yLjQzMy0yLjg4OSAyLjkyNy01Ljg5IDUuMzg2LTguMTQ2IDUuODI1QzkuNDY5IDM2LjU0MiAzLjkxOSAyNS43ODcgNC44NzMgMjAuODRhMTkuODEgMTkuODEgMCAwIDAgLjA1IDcuNzNjMi4xOTYgMTAuNzYgMTIuNjk2IDE3LjcgMjMuNDU3IDE1LjUwNWExOS44MTQgMTkuODE0IDAgMCAwIDguNzI3LTQuMTgxcy4wNC0uMDMuMDU0LS4wNDVhMTkuNzYgMTkuNzYgMCAwIDAgMi4yMDItMi4xNTd2LjAwNVoiIGZpbGwtcnVsZT0iZXZlbm9kZCIgZmlsbD0idXJsKCNnKSIvPgogIDwvZz4KICA8ZGVmcz4KICAgIDxyYWRpYWxHcmFkaWVudCBncmFkaWVudFVuaXRzPSJ1c2VyU3BhY2VPblVzZSIgZ3JhZGllbnRUcmFuc2Zvcm09InJvdGF0ZSgxMzQuODMgMTguMTEzIDguMjk0KSBzY2FsZSgyNS44OTI1IDMzLjQwMzMpIiByPSIxIiBjeT0iMCIgY3g9IjAiIGlkPSJkIj4KICAgICAgPHN0b3Agc3RvcC1jb2xvcj0iIzAyOEZEQyIgb2Zmc2V0PSIuMzkiLz4KICAgICAgPHN0b3Agc3RvcC1jb2xvcj0iIzAwNzhENCIgb2Zmc2V0PSIuNTkiLz4KICAgICAgPHN0b3Agc3RvcC1jb2xvcj0iIzFBNTA4QiIgb2Zmc2V0PSIxIi8+CiAgICA8L3JhZGlhbEdyYWRpZW50PgogICAgPHJhZGlhbEdyYWRpZW50IGdyYWRpZW50VW5pdHM9InVzZXJTcGFjZU9uVXNlIiBncmFkaWVudFRyYW5zZm9ybT0icm90YXRlKDEzOS40NCAxMi41NCAxNC4xNDUpIHNjYWxlKDIzLjMwMDYgMjguNzQ5NSkiIHI9IjEiIGN5PSIwIiBjeD0iMCIgaWQ9ImUiPgogICAgICA8c3RvcCBzdG9wLWNvbG9yPSIjNDBEOUZBIiBvZmZzZXQ9Ii40NiIvPgogICAgICA8c3RvcCBzdG9wLWNvbG9yPSIjMDA5NUU2IiBvZmZzZXQ9Ii45Ii8+CiAgICA8L3JhZGlhbEdyYWRpZW50PgogICAgPHJhZGlhbEdyYWRpZW50IGdyYWRpZW50VW5pdHM9InVzZXJTcGFjZU9uVXNlIiBncmFkaWVudFRyYW5zZm9ybT0ibWF0cml4KC0yLjY1MzA4IDI0LjU4MTg0IC0xNy40NTgzMSAtMS44ODQyNSAxOC40MDggMTEuNzY0KSIgcj0iMSIgY3k9IjAiIGN4PSIwIiBpZD0iZiI+CiAgICAgIDxzdG9wIHN0b3Atb3BhY2l0eT0iMCIgb2Zmc2V0PSIuNzciLz4KICAgICAgPHN0b3Agb2Zmc2V0PSIxIi8+CiAgICA8L3JhZGlhbEdyYWRpZW50PgogICAgPHJhZGlhbEdyYWRpZW50IGdyYWRpZW50VW5pdHM9InVzZXJTcGFjZU9uVXNlIiBncmFkaWVudFRyYW5zZm9ybT0icm90YXRlKDg1Ljk3IC0xLjAxMSAzMS4yMDkpIHNjYWxlKDM4LjQ3NDkgNzAuMTU3OCkiIHI9IjEiIGN5PSIwIiBjeD0iMCIgaWQ9ImciPgogICAgICA8c3RvcCBzdG9wLWNvbG9yPSIjQkRGNUZGIiBvZmZzZXQ9Ii4xIi8+CiAgICAgIDxzdG9wIHN0b3AtY29sb3I9IiM0MEQ5RkEiIG9mZnNldD0iLjQ3Ii8+CiAgICA8L3JhZGlhbEdyYWRpZW50PgogICAgPGxpbmVhckdyYWRpZW50IGdyYWRpZW50VW5pdHM9InVzZXJTcGFjZU9uVXNlIiB5Mj0iMjUuNTU3IiB5MT0iMTcuNDczIiB4Mj0iNC40NDgiIHgxPSIzOS41MSIgaWQ9ImIiPgogICAgICA8c3RvcCBzdG9wLWNvbG9yPSIjMDI4RkRDIiBvZmZzZXQ9Ii4yIi8+CiAgICAgIDxzdG9wIHN0b3AtY29sb3I9IiMwMDc4RDQiIG9mZnNldD0iLjUxIi8+CiAgICAgIDxzdG9wIHN0b3AtY29sb3I9IiMwQjMxNUIiIG9mZnNldD0iMSIvPgogICAgPC9saW5lYXJHcmFkaWVudD4KICAgIDxsaW5lYXJHcmFkaWVudCBncmFkaWVudFVuaXRzPSJ1c2VyU3BhY2VPblVzZSIgeTI9IjcuMTEyIiB5MT0iMjguMzQxIiB4Mj0iMTguODMxIiB4MT0iNDEuOTk1IiBpZD0iYyI+CiAgICAgIDxzdG9wIHN0b3AtY29sb3I9IiMwMjhGREMiIG9mZnNldD0iLjA0Ii8+CiAgICAgIDxzdG9wIHN0b3AtY29sb3I9IiMwMDc4RDQiIG9mZnNldD0iLjQ2Ii8+CiAgICAgIDxzdG9wIHN0b3AtY29sb3I9IiMwQjMxNUIiIG9mZnNldD0iMSIvPgogICAgPC9saW5lYXJHcmFkaWVudD4KICA8L2RlZnM+Cjwvc3ZnPg==;" parent="1" vertex="1">
                    <mxGeometry x="579" y="174.21" width="38" height="38.79" as="geometry"/>
                </mxCell>
                <mxCell id="65" value="&lt;font style=&quot;&quot;&gt;&lt;font style=&quot;&quot;&gt;&lt;span style=&quot;font-size: 18px;&quot;&gt;Data Movement: SQL to Lakehouse&lt;/span&gt;&lt;br&gt;&lt;/font&gt;&lt;br&gt;&lt;font style=&quot;font-size: 14px;&quot;&gt;from: SQL Private Endpoint&lt;br&gt;&lt;/font&gt;&lt;/font&gt;&lt;div style=&quot;&quot;&gt;&lt;span style=&quot;background-color: initial;&quot;&gt;&lt;font style=&quot;font-size: 14px;&quot;&gt;to: https://onelake.dfs.fabric.microsoft.com/&lt;font style=&quot;&quot; color=&quot;#ff0000&quot;&gt;ABC&lt;/font&gt;/&lt;font style=&quot;&quot; color=&quot;#3333ff&quot;&gt;DEF&lt;/font&gt;&lt;/font&gt;&lt;/span&gt;&lt;/div&gt;" style="rounded=0;whiteSpace=wrap;html=1;labelBackgroundColor=none;fontSize=10;fillColor=#1A1A1A;fontColor=default;verticalAlign=top;align=left;spacingLeft=8;spacingRight=8;spacingBottom=8;strokeColor=#999999;" parent="1" vertex="1">
                    <mxGeometry x="10" y="80" width="353" height="90" as="geometry"/>
                </mxCell>
                <mxCell id="66" value="&lt;b&gt;Pipeline&lt;/b&gt;&lt;br&gt;&lt;font style=&quot;font-size: 11px;&quot;&gt;Copy Data&lt;/font&gt;" style="rounded=0;whiteSpace=wrap;html=1;verticalAlign=top;labelBackgroundColor=default;align=right;spacingRight=5;spacingLeft=5;fillColor=#1A1A1A;" parent="1" vertex="1">
                    <mxGeometry x="20" y="431" width="182" height="50" as="geometry"/>
                </mxCell>
                <mxCell id="70" value="" style="shape=image;verticalLabelPosition=bottom;labelBackgroundColor=default;verticalAlign=top;aspect=fixed;imageAspect=0;image=data:image/svg+xml,PHN2ZyB4bWxucz0iaHR0cDovL3d3dy53My5vcmcvMjAwMC9zdmciIHhtbG5zOnhsaW5rPSJodHRwOi8vd3d3LnczLm9yZy8xOTk5L3hsaW5rIiBmaWxsPSJub25lIiB2aWV3Qm94PSIwIDAgMTYgMTYiIGhlaWdodD0iMTYiIHdpZHRoPSIxNiI+CjxwYXRoIGZpbGw9InVybCgjcGFpbnQwX2xpbmVhcikiIGQ9Ik02LjEyMjAyIDMuMzYzODhDMy43NDgwMiAzLjM2Mzg4IDEuODIyMDIgMi43NDY4OCAxLjgyMjAyIDEuOTMxODhWOS41NTk4OUMxLjgyMjAyIDEwLjM0MzkgMy43MTMwMiAxMC45Nzk5IDYuMDYwMDIgMTAuOTkxOUg2LjEyMDAyQzguNDkzMDIgMTAuOTkxOSAxMC40MiAxMC4zNzQ5IDEwLjQyIDkuNTU5ODlWMS45MzE4OEMxMC40MiAyLjcyNzg4IDguNDk1MDIgMy4zNjM4OCA2LjEyMjAyIDMuMzYzODhaIi8+CjxwYXRoIGZpbGw9IiNFOEU4RTgiIGQ9Ik0xMC40MjAxIDEuOTMyQzEwLjQyMDEgMi43MzIgOC40OTUwNyAzLjM2NCA2LjEyMDA3IDMuMzY0QzMuNzQ1MDcgMy4zNjQgMS44MjAwNyAyLjc0NyAxLjgyMDA3IDEuOTMyQzEuODIwMDcgMS4xMTcgMy43NDgwNyAwLjUgNi4xMjIwNyAwLjVDOC40OTYwNyAwLjUgMTAuNDIyMSAxLjExNyAxMC40MjIxIDEuOTMyIi8+CjxwYXRoIGZpbGw9IiM1MEU2RkYiIGQ9Ik05LjQyMTA0IDEuODE0OThDOS40MjEwNCAyLjMyMDk4IDcuOTM5MDQgMi43Mjc5OCA2LjEyMTA0IDIuNzI3OThDNC4zMDMwNCAyLjcyNzk4IDIuODIxMDQgMi4zMjA5OCAyLjgyMTA0IDEuODE0OThDMi44MjEwNCAxLjMwODk4IDQuMzA1MDUgMC45MDY5ODIgNi4xMjIwNSAwLjkwNjk4MkM3LjkzOTA0IDAuOTA2OTgyIDkuNDIyMDQgMS4zMTQ5OCA5LjQyMjA0IDEuODE0OTgiLz4KPHBhdGggZmlsbD0iIzE5OEFCMyIgZD0iTTYuMTIyMTYgMi4wNDI5QzUuMjM5NDEgMi4wMjMxNiA0LjM1OTEzIDIuMTQzNjYgMy41MTQxNiAyLjM5OTlDNC4zNjAyMSAyLjY0OTExIDUuMjQwNjQgMi43NjE1MiA2LjEyMjE2IDIuNzMyOUM3LjAwNTUyIDIuNzU1NzEgNy44ODY2MSAyLjYzMzA4IDguNzMwMTYgMi4zNjk5QzcuODgyNzYgMi4xMjc3MSA3LjAwMzEyIDIuMDE3NDEgNi4xMjIxNiAyLjA0MjlaIi8+CjxwYXRoIGZpbGw9InVybCgjcGFpbnQxX2xpbmVhcikiIGQ9Ik0xMC40MjAxIDcuODcxOTRDOC4wNDYxMiA3Ljg3MTk0IDYuMTIwMTIgNy4yNTM5NCA2LjEyMDEyIDYuNDM5OTRWMTQuMDY3OUM2LjEyMDEyIDE0Ljg1MTkgOC4wMTExMiAxNS40ODc5IDEwLjM1NzEgMTUuNDk5OUgxMC40MTgxQzEyLjc5MTEgMTUuNDk5OSAxNC43MTgxIDE0Ljg4MjkgMTQuNzE4MSAxNC4wNjc5VjYuNDM5OTRDMTQuNzE3MSA3LjIzNTk0IDEyLjc5MzEgNy44NzE5NCAxMC40MjAxIDcuODcxOTRaIi8+CjxwYXRoIGZpbGw9IiNFOEU4RTgiIGQ9Ik0xNC43MTcyIDYuNDQwMDZDMTQuNzE3MiA3LjI0MDA2IDEyLjc5MzIgNy44NzIwNiAxMC40MTcyIDcuODcyMDZDOC4wNDExOSA3Ljg3MjA2IDYuMTE3MTkgNy4yNTQwNiA2LjExNzE5IDYuNDQwMDZDNi4xMTcxOSA1LjYyNjA2IDguMDQxMTkgNS4wMDgwNiAxMC40MTcyIDUuMDA4MDZDMTIuNzkzMiA1LjAwODA2IDE0LjcxNzIgNS42MjUwNiAxNC43MTcyIDYuNDQwMDZaIi8+CjxwYXRoIGZpbGw9IiM1MEU2RkYiIGQ9Ik0xMy43MTgyIDYuMzIyMDRDMTMuNzE4MiA2LjgyODA0IDEyLjIzNjIgNy4yMzYwNCAxMC40MTgyIDcuMjM2MDRDOC42MDAxNiA3LjIzNjA0IDcuMTE4MTYgNi44MjgwNCA3LjExODE2IDYuMzIyMDRDNy4xMTgxNiA1LjgxNjA0IDguNjAwMTYgNS40MTUwNCAxMC40MTgyIDUuNDE1MDRDMTIuMjM2MiA1LjQxNTA0IDEzLjcxODIgNS44MjIwNCAxMy43MTgyIDYuMzIyMDRaIi8+CjxwYXRoIGZpbGw9IiMxOThBQjMiIGQ9Ik0xMC40MjAzIDYuNTUxMTJDOS41Mzc2MyA2LjUyODg1IDguNjU3MDQgNi42NDY2NSA3LjgxMTI4IDYuOTAwMTJDOC42NTc3NyA3LjE0ODg1IDkuNTM4NDUgNy4yNjEyNiAxMC40MjAzIDcuMjMzMTJDMTEuMzAzMyA3LjI1Njk5IDEyLjE4NDMgNy4xMzYwNiAxMy4wMjgzIDYuODc1MTJDMTIuMTgwOCA2LjYzMzQ2IDExLjMwMTEgNi41MjQxNyAxMC40MjAzIDYuNTUxMTJaIi8+CjxkZWZzPgo8bGluZWFyR3JhZGllbnQgZ3JhZGllbnRVbml0cz0idXNlclNwYWNlT25Vc2UiIHkyPSI2LjQ2MTg5IiB4Mj0iMTAuNDIiIHkxPSI2LjQ2MTg5IiB4MT0iMS44MjQwMiIgaWQ9InBhaW50MF9saW5lYXIiPgo8c3RvcCBzdG9wLWNvbG9yPSIjMDA1QkExIi8+CjxzdG9wIHN0b3AtY29sb3I9IiMwMDYwQTkiIG9mZnNldD0iMC4wNyIvPgo8c3RvcCBzdG9wLWNvbG9yPSIjMDA3MUM4IiBvZmZzZXQ9IjAuMzYiLz4KPHN0b3Agc3RvcC1jb2xvcj0iIzAwNzhENCIgb2Zmc2V0PSIwLjUyIi8+CjxzdG9wIHN0b3AtY29sb3I9IiMwMDc0Q0QiIG9mZnNldD0iMC42NCIvPgo8c3RvcCBzdG9wLWNvbG9yPSIjMDA2QUJCIiBvZmZzZXQ9IjAuODIiLz4KPHN0b3Agc3RvcC1jb2xvcj0iIzAwNUJBMSIgb2Zmc2V0PSIxIi8+CjwvbGluZWFyR3JhZGllbnQ+CjxsaW5lYXJHcmFkaWVudCBncmFkaWVudFVuaXRzPSJ1c2VyU3BhY2VPblVzZSIgeTI9IjM5ODQuMDUiIHgyPSIxMzIuNjU3IiB5MT0iMzk4NC4wNSIgeDE9IjU4Ljc1NzEiIGlkPSJwYWludDFfbGluZWFyIj4KPHN0b3Agc3RvcC1jb2xvcj0iIzAwNUJBMSIvPgo8c3RvcCBzdG9wLWNvbG9yPSIjMDA2MEE5IiBvZmZzZXQ9IjAuMDciLz4KPHN0b3Agc3RvcC1jb2xvcj0iIzAwNzFDOCIgb2Zmc2V0PSIwLjM2Ii8+CjxzdG9wIHN0b3AtY29sb3I9IiMwMDc4RDQiIG9mZnNldD0iMC41MiIvPgo8c3RvcCBzdG9wLWNvbG9yPSIjMDA3NENEIiBvZmZzZXQ9IjAuNjQiLz4KPHN0b3Agc3RvcC1jb2xvcj0iIzAwNkFCQiIgb2Zmc2V0PSIwLjgyIi8+CjxzdG9wIHN0b3AtY29sb3I9IiMwMDVCQTEiIG9mZnNldD0iMSIvPgo8L2xpbmVhckdyYWRpZW50Pgo8L2RlZnM+Cjwvc3ZnPg==;" parent="1" vertex="1">
                    <mxGeometry x="95" y="440" width="26" height="26" as="geometry"/>
                </mxCell>
                <mxCell id="71" value="&lt;font style=&quot;&quot;&gt;&lt;b&gt;Credential&lt;br&gt;&lt;/b&gt;&lt;/font&gt;&lt;font style=&quot;font-size: 11px;&quot;&gt;Service Principal&lt;/font&gt;" style="rounded=0;whiteSpace=wrap;html=1;verticalAlign=top;labelBackgroundColor=default;align=right;spacingRight=5;spacingLeft=5;fillColor=#1A1A1A;" parent="1" vertex="1">
                    <mxGeometry x="20" y="374" width="182" height="50" as="geometry"/>
                </mxCell>
                <mxCell id="74" value="&lt;span style=&quot;font-weight: normal;&quot;&gt;&lt;font style=&quot;font-size: 10px;&quot; color=&quot;#66ffff&quot;&gt;Svc Principal A&lt;/font&gt;&lt;/span&gt;" style="rounded=0;whiteSpace=wrap;html=1;verticalAlign=middle;labelBackgroundColor=default;align=center;spacingRight=5;spacingLeft=5;fontStyle=1;labelBorderColor=none;strokeColor=#00CC66;" parent="1" vertex="1">
                    <mxGeometry x="26" y="391" width="80" height="22.41" as="geometry"/>
                </mxCell>
                <mxCell id="76" style="edgeStyle=orthogonalEdgeStyle;html=1;exitX=0.5;exitY=1;exitDx=0;exitDy=0;entryX=0.5;entryY=0;entryDx=0;entryDy=0;strokeColor=#66CC00;fontSize=11;fontColor=#66FFFF;endArrow=none;endFill=0;fillColor=#FF0000;" parent="1" source="54" target="74" edge="1">
                    <mxGeometry relative="1" as="geometry"/>
                </mxCell>
            </root>
        </mxGraphModel>
    </diagram>
</mxfile>